G04 #@! TF.FileFunction,Copper,L2,Bot,Signal*
%FSLAX46Y46*%
G04 Gerber Fmt 4.6, Leading zero omitted, Abs format (unit mm)*
G04 Created by KiCad (PCBNEW 4.0.4-stable) date 09/09/16 11:01:10*
%MOMM*%
%LPD*%
G01*
G04 APERTURE LIST*
%ADD10C,0.100000*%
%ADD11C,0.300000*%
%ADD12C,0.150000*%
%ADD13C,0.600000*%
%ADD14C,3.000000*%
%ADD15R,1.600000X1.600000*%
%ADD16C,1.600000*%
%ADD17C,6.000000*%
%ADD18C,0.200000*%
G04 APERTURE END LIST*
D10*
D11*
X140600000Y-73578571D02*
X140600000Y-72078571D01*
X140600000Y-73507143D02*
X140742857Y-73578571D01*
X141028571Y-73578571D01*
X141171429Y-73507143D01*
X141242857Y-73435714D01*
X141314286Y-73292857D01*
X141314286Y-72864286D01*
X141242857Y-72721429D01*
X141171429Y-72650000D01*
X141028571Y-72578571D01*
X140742857Y-72578571D01*
X140600000Y-72650000D01*
X139885714Y-73578571D02*
X139885714Y-72578571D01*
X139885714Y-72864286D02*
X139814286Y-72721429D01*
X139742857Y-72650000D01*
X139600000Y-72578571D01*
X139457143Y-72578571D01*
X139100000Y-72578571D02*
X138742857Y-73578571D01*
X138385715Y-72578571D01*
X137814286Y-73578571D02*
X137814286Y-72078571D01*
X137814286Y-72650000D02*
X137671429Y-72578571D01*
X137385715Y-72578571D01*
X137242858Y-72650000D01*
X137171429Y-72721429D01*
X137100000Y-72864286D01*
X137100000Y-73292857D01*
X137171429Y-73435714D01*
X137242858Y-73507143D01*
X137385715Y-73578571D01*
X137671429Y-73578571D01*
X137814286Y-73507143D01*
X135814286Y-73578571D02*
X135814286Y-72792857D01*
X135885715Y-72650000D01*
X136028572Y-72578571D01*
X136314286Y-72578571D01*
X136457143Y-72650000D01*
X135814286Y-73507143D02*
X135957143Y-73578571D01*
X136314286Y-73578571D01*
X136457143Y-73507143D01*
X136528572Y-73364286D01*
X136528572Y-73221429D01*
X136457143Y-73078571D01*
X136314286Y-73007143D01*
X135957143Y-73007143D01*
X135814286Y-72935714D01*
X135314286Y-72578571D02*
X134742857Y-72578571D01*
X135100000Y-72078571D02*
X135100000Y-73364286D01*
X135028572Y-73507143D01*
X134885714Y-73578571D01*
X134742857Y-73578571D01*
X134314286Y-73507143D02*
X134171429Y-73578571D01*
X133885714Y-73578571D01*
X133742857Y-73507143D01*
X133671429Y-73364286D01*
X133671429Y-73292857D01*
X133742857Y-73150000D01*
X133885714Y-73078571D01*
X134100000Y-73078571D01*
X134242857Y-73007143D01*
X134314286Y-72864286D01*
X134314286Y-72792857D01*
X134242857Y-72650000D01*
X134100000Y-72578571D01*
X133885714Y-72578571D01*
X133742857Y-72650000D01*
X133171428Y-72578571D02*
X132885714Y-73578571D01*
X132600000Y-72864286D01*
X132314285Y-73578571D01*
X132028571Y-72578571D01*
X131457142Y-73578571D02*
X131457142Y-72578571D01*
X131457142Y-72078571D02*
X131528571Y-72150000D01*
X131457142Y-72221429D01*
X131385714Y-72150000D01*
X131457142Y-72078571D01*
X131457142Y-72221429D01*
X130957142Y-72578571D02*
X130385713Y-72578571D01*
X130742856Y-72078571D02*
X130742856Y-73364286D01*
X130671428Y-73507143D01*
X130528570Y-73578571D01*
X130385713Y-73578571D01*
X129242856Y-73507143D02*
X129385713Y-73578571D01*
X129671427Y-73578571D01*
X129814285Y-73507143D01*
X129885713Y-73435714D01*
X129957142Y-73292857D01*
X129957142Y-72864286D01*
X129885713Y-72721429D01*
X129814285Y-72650000D01*
X129671427Y-72578571D01*
X129385713Y-72578571D01*
X129242856Y-72650000D01*
X128599999Y-73578571D02*
X128599999Y-72078571D01*
X127957142Y-73578571D02*
X127957142Y-72792857D01*
X128028571Y-72650000D01*
X128171428Y-72578571D01*
X128385713Y-72578571D01*
X128528571Y-72650000D01*
X128599999Y-72721429D01*
D12*
X153809524Y-71877381D02*
X154142858Y-71401190D01*
X154380953Y-71877381D02*
X154380953Y-70877381D01*
X154000000Y-70877381D01*
X153904762Y-70925000D01*
X153857143Y-70972619D01*
X153809524Y-71067857D01*
X153809524Y-71210714D01*
X153857143Y-71305952D01*
X153904762Y-71353571D01*
X154000000Y-71401190D01*
X154380953Y-71401190D01*
X153523810Y-70877381D02*
X152952381Y-70877381D01*
X153238096Y-71877381D02*
X153238096Y-70877381D01*
X152619048Y-71877381D02*
X152619048Y-70877381D01*
X152285714Y-71591667D01*
X151952381Y-70877381D01*
X151952381Y-71877381D01*
X150761905Y-70829762D02*
X151619048Y-72115476D01*
X150476191Y-71591667D02*
X150000000Y-71591667D01*
X150571429Y-71877381D02*
X150238096Y-70877381D01*
X149904762Y-71877381D01*
X149285714Y-70877381D02*
X149285714Y-71591667D01*
X149333334Y-71734524D01*
X149428572Y-71829762D01*
X149571429Y-71877381D01*
X149666667Y-71877381D01*
X147523809Y-71877381D02*
X148095238Y-71877381D01*
X147809524Y-71877381D02*
X147809524Y-70877381D01*
X147904762Y-71020238D01*
X148000000Y-71115476D01*
X148095238Y-71163095D01*
X146666666Y-70877381D02*
X146857143Y-70877381D01*
X146952381Y-70925000D01*
X147000000Y-70972619D01*
X147095238Y-71115476D01*
X147142857Y-71305952D01*
X147142857Y-71686905D01*
X147095238Y-71782143D01*
X147047619Y-71829762D01*
X146952381Y-71877381D01*
X146761904Y-71877381D01*
X146666666Y-71829762D01*
X146619047Y-71782143D01*
X146571428Y-71686905D01*
X146571428Y-71448810D01*
X146619047Y-71353571D01*
X146666666Y-71305952D01*
X146761904Y-71258333D01*
X146952381Y-71258333D01*
X147047619Y-71305952D01*
X147095238Y-71353571D01*
X147142857Y-71448810D01*
X152809523Y-73003571D02*
X152666666Y-73051190D01*
X152619047Y-73098810D01*
X152571428Y-73194048D01*
X152571428Y-73336905D01*
X152619047Y-73432143D01*
X152666666Y-73479762D01*
X152761904Y-73527381D01*
X153142857Y-73527381D01*
X153142857Y-72527381D01*
X152809523Y-72527381D01*
X152714285Y-72575000D01*
X152666666Y-72622619D01*
X152619047Y-72717857D01*
X152619047Y-72813095D01*
X152666666Y-72908333D01*
X152714285Y-72955952D01*
X152809523Y-73003571D01*
X153142857Y-73003571D01*
X151952381Y-72527381D02*
X151761904Y-72527381D01*
X151666666Y-72575000D01*
X151571428Y-72670238D01*
X151523809Y-72860714D01*
X151523809Y-73194048D01*
X151571428Y-73384524D01*
X151666666Y-73479762D01*
X151761904Y-73527381D01*
X151952381Y-73527381D01*
X152047619Y-73479762D01*
X152142857Y-73384524D01*
X152190476Y-73194048D01*
X152190476Y-72860714D01*
X152142857Y-72670238D01*
X152047619Y-72575000D01*
X151952381Y-72527381D01*
X151238095Y-72527381D02*
X150666666Y-72527381D01*
X150952381Y-73527381D02*
X150952381Y-72527381D01*
X150476190Y-72527381D02*
X149904761Y-72527381D01*
X150190476Y-73527381D02*
X150190476Y-72527381D01*
X149380952Y-72527381D02*
X149190475Y-72527381D01*
X149095237Y-72575000D01*
X148999999Y-72670238D01*
X148952380Y-72860714D01*
X148952380Y-73194048D01*
X148999999Y-73384524D01*
X149095237Y-73479762D01*
X149190475Y-73527381D01*
X149380952Y-73527381D01*
X149476190Y-73479762D01*
X149571428Y-73384524D01*
X149619047Y-73194048D01*
X149619047Y-72860714D01*
X149571428Y-72670238D01*
X149476190Y-72575000D01*
X149380952Y-72527381D01*
X148523809Y-73527381D02*
X148523809Y-72527381D01*
X148190475Y-73241667D01*
X147857142Y-72527381D01*
X147857142Y-73527381D01*
D13*
X150750000Y-75000000D03*
X121500000Y-75000000D03*
X118500000Y-77750000D03*
X109250000Y-77250000D03*
X109250000Y-75000000D03*
X109250000Y-72750000D03*
X124000000Y-92000000D03*
X122500000Y-92000000D03*
X140000000Y-75000000D03*
X143500000Y-73000000D03*
X146500000Y-75000000D03*
X146500000Y-80000000D03*
X146500000Y-85000000D03*
X140500000Y-85000000D03*
X139000000Y-85000000D03*
X150000000Y-94000000D03*
X154000000Y-94000000D03*
X154000000Y-90000000D03*
X154000000Y-85000000D03*
X154000000Y-80000000D03*
X154000000Y-75000000D03*
X140000000Y-71000000D03*
X135000000Y-71000000D03*
X130000000Y-71000000D03*
X125000000Y-71000000D03*
X120000000Y-71000000D03*
X123500000Y-87500000D03*
X125000000Y-87500000D03*
X129250000Y-87250000D03*
X128750000Y-92250000D03*
X128750000Y-94250000D03*
D14*
X102500000Y-92500000D03*
X107000000Y-92500000D03*
X102500000Y-87500000D03*
X107000000Y-87500000D03*
X102500000Y-77500000D03*
X107000000Y-77500000D03*
X102500000Y-72500000D03*
X107000000Y-72500000D03*
X131500000Y-92500000D03*
X136500000Y-92500000D03*
X131500000Y-88000000D03*
X136500000Y-88000000D03*
X146000000Y-92500000D03*
X141000000Y-92500000D03*
X141000000Y-88000000D03*
X146000000Y-88000000D03*
D13*
X145000000Y-71000000D03*
D15*
X127500000Y-77500000D03*
D16*
X125000000Y-77500000D03*
X122500000Y-77500000D03*
D17*
X149500000Y-82500000D03*
X105500000Y-82500000D03*
D18*
G36*
X146080952Y-74250000D02*
X154625000Y-74250000D01*
X154625000Y-94625000D01*
X100375000Y-94625000D01*
X100375000Y-92856471D01*
X100699688Y-92856471D01*
X100973145Y-93518286D01*
X101479051Y-94025076D01*
X102140387Y-94299687D01*
X102856471Y-94300312D01*
X103518286Y-94026855D01*
X104025076Y-93520949D01*
X104299687Y-92859613D01*
X104299689Y-92856471D01*
X105199688Y-92856471D01*
X105473145Y-93518286D01*
X105979051Y-94025076D01*
X106640387Y-94299687D01*
X107356471Y-94300312D01*
X108018286Y-94026855D01*
X108525076Y-93520949D01*
X108799687Y-92859613D01*
X108799689Y-92856471D01*
X129699688Y-92856471D01*
X129973145Y-93518286D01*
X130479051Y-94025076D01*
X131140387Y-94299687D01*
X131856471Y-94300312D01*
X132518286Y-94026855D01*
X133025076Y-93520949D01*
X133299687Y-92859613D01*
X133299689Y-92856471D01*
X134699688Y-92856471D01*
X134973145Y-93518286D01*
X135479051Y-94025076D01*
X136140387Y-94299687D01*
X136856471Y-94300312D01*
X137518286Y-94026855D01*
X138025076Y-93520949D01*
X138299687Y-92859613D01*
X138299689Y-92856471D01*
X139199688Y-92856471D01*
X139473145Y-93518286D01*
X139979051Y-94025076D01*
X140640387Y-94299687D01*
X141356471Y-94300312D01*
X142018286Y-94026855D01*
X142525076Y-93520949D01*
X142799687Y-92859613D01*
X142799689Y-92856471D01*
X144199688Y-92856471D01*
X144473145Y-93518286D01*
X144979051Y-94025076D01*
X145640387Y-94299687D01*
X146356471Y-94300312D01*
X147018286Y-94026855D01*
X147525076Y-93520949D01*
X147799687Y-92859613D01*
X147800312Y-92143529D01*
X147526855Y-91481714D01*
X147020949Y-90974924D01*
X146359613Y-90700313D01*
X145643529Y-90699688D01*
X144981714Y-90973145D01*
X144474924Y-91479051D01*
X144200313Y-92140387D01*
X144199688Y-92856471D01*
X142799689Y-92856471D01*
X142800312Y-92143529D01*
X142526855Y-91481714D01*
X142020949Y-90974924D01*
X141359613Y-90700313D01*
X140643529Y-90699688D01*
X139981714Y-90973145D01*
X139474924Y-91479051D01*
X139200313Y-92140387D01*
X139199688Y-92856471D01*
X138299689Y-92856471D01*
X138300312Y-92143529D01*
X138026855Y-91481714D01*
X137520949Y-90974924D01*
X136859613Y-90700313D01*
X136143529Y-90699688D01*
X135481714Y-90973145D01*
X134974924Y-91479051D01*
X134700313Y-92140387D01*
X134699688Y-92856471D01*
X133299689Y-92856471D01*
X133300312Y-92143529D01*
X133026855Y-91481714D01*
X132520949Y-90974924D01*
X131859613Y-90700313D01*
X131143529Y-90699688D01*
X130481714Y-90973145D01*
X129974924Y-91479051D01*
X129700313Y-92140387D01*
X129699688Y-92856471D01*
X108799689Y-92856471D01*
X108800312Y-92143529D01*
X108526855Y-91481714D01*
X108020949Y-90974924D01*
X107359613Y-90700313D01*
X106643529Y-90699688D01*
X105981714Y-90973145D01*
X105474924Y-91479051D01*
X105200313Y-92140387D01*
X105199688Y-92856471D01*
X104299689Y-92856471D01*
X104300312Y-92143529D01*
X104026855Y-91481714D01*
X103520949Y-90974924D01*
X102859613Y-90700313D01*
X102143529Y-90699688D01*
X101481714Y-90973145D01*
X100974924Y-91479051D01*
X100700313Y-92140387D01*
X100699688Y-92856471D01*
X100375000Y-92856471D01*
X100375000Y-87856471D01*
X100699688Y-87856471D01*
X100973145Y-88518286D01*
X101479051Y-89025076D01*
X102140387Y-89299687D01*
X102856471Y-89300312D01*
X103518286Y-89026855D01*
X104025076Y-88520949D01*
X104299687Y-87859613D01*
X104299689Y-87856471D01*
X105199688Y-87856471D01*
X105473145Y-88518286D01*
X105979051Y-89025076D01*
X106640387Y-89299687D01*
X107356471Y-89300312D01*
X108018286Y-89026855D01*
X108525076Y-88520949D01*
X108593373Y-88356471D01*
X129699688Y-88356471D01*
X129973145Y-89018286D01*
X130479051Y-89525076D01*
X131140387Y-89799687D01*
X131856471Y-89800312D01*
X132518286Y-89526855D01*
X133025076Y-89020949D01*
X133299687Y-88359613D01*
X133299689Y-88356471D01*
X134699688Y-88356471D01*
X134973145Y-89018286D01*
X135479051Y-89525076D01*
X136140387Y-89799687D01*
X136856471Y-89800312D01*
X137518286Y-89526855D01*
X138025076Y-89020949D01*
X138299687Y-88359613D01*
X138299689Y-88356471D01*
X139199688Y-88356471D01*
X139473145Y-89018286D01*
X139979051Y-89525076D01*
X140640387Y-89799687D01*
X141356471Y-89800312D01*
X142018286Y-89526855D01*
X142525076Y-89020949D01*
X142799687Y-88359613D01*
X142799689Y-88356471D01*
X144199688Y-88356471D01*
X144473145Y-89018286D01*
X144979051Y-89525076D01*
X145640387Y-89799687D01*
X146356471Y-89800312D01*
X147018286Y-89526855D01*
X147525076Y-89020949D01*
X147799687Y-88359613D01*
X147800312Y-87643529D01*
X147526855Y-86981714D01*
X147020949Y-86474924D01*
X146359613Y-86200313D01*
X145643529Y-86199688D01*
X144981714Y-86473145D01*
X144474924Y-86979051D01*
X144200313Y-87640387D01*
X144199688Y-88356471D01*
X142799689Y-88356471D01*
X142800312Y-87643529D01*
X142526855Y-86981714D01*
X142020949Y-86474924D01*
X141359613Y-86200313D01*
X140643529Y-86199688D01*
X139981714Y-86473145D01*
X139474924Y-86979051D01*
X139200313Y-87640387D01*
X139199688Y-88356471D01*
X138299689Y-88356471D01*
X138300312Y-87643529D01*
X138026855Y-86981714D01*
X137520949Y-86474924D01*
X136859613Y-86200313D01*
X136143529Y-86199688D01*
X135481714Y-86473145D01*
X134974924Y-86979051D01*
X134700313Y-87640387D01*
X134699688Y-88356471D01*
X133299689Y-88356471D01*
X133300312Y-87643529D01*
X133026855Y-86981714D01*
X132520949Y-86474924D01*
X131859613Y-86200313D01*
X131143529Y-86199688D01*
X130481714Y-86473145D01*
X129974924Y-86979051D01*
X129700313Y-87640387D01*
X129699688Y-88356471D01*
X108593373Y-88356471D01*
X108799687Y-87859613D01*
X108800312Y-87143529D01*
X108526855Y-86481714D01*
X108020949Y-85974924D01*
X107359613Y-85700313D01*
X106643529Y-85699688D01*
X105981714Y-85973145D01*
X105474924Y-86479051D01*
X105200313Y-87140387D01*
X105199688Y-87856471D01*
X104299689Y-87856471D01*
X104300312Y-87143529D01*
X104026855Y-86481714D01*
X103520949Y-85974924D01*
X102859613Y-85700313D01*
X102143529Y-85699688D01*
X101481714Y-85973145D01*
X100974924Y-86479051D01*
X100700313Y-87140387D01*
X100699688Y-87856471D01*
X100375000Y-87856471D01*
X100375000Y-83153531D01*
X102199428Y-83153531D01*
X102700765Y-84366858D01*
X103628259Y-85295973D01*
X104840710Y-85799426D01*
X106153531Y-85800572D01*
X107366858Y-85299235D01*
X108295973Y-84371741D01*
X108799426Y-83159290D01*
X108799431Y-83153531D01*
X146199428Y-83153531D01*
X146700765Y-84366858D01*
X147628259Y-85295973D01*
X148840710Y-85799426D01*
X150153531Y-85800572D01*
X151366858Y-85299235D01*
X152295973Y-84371741D01*
X152799426Y-83159290D01*
X152800572Y-81846469D01*
X152299235Y-80633142D01*
X151371741Y-79704027D01*
X150159290Y-79200574D01*
X148846469Y-79199428D01*
X147633142Y-79700765D01*
X146704027Y-80628259D01*
X146200574Y-81840710D01*
X146199428Y-83153531D01*
X108799431Y-83153531D01*
X108800572Y-81846469D01*
X108299235Y-80633142D01*
X107371741Y-79704027D01*
X106159290Y-79200574D01*
X104846469Y-79199428D01*
X103633142Y-79700765D01*
X102704027Y-80628259D01*
X102200574Y-81840710D01*
X102199428Y-83153531D01*
X100375000Y-83153531D01*
X100375000Y-77856471D01*
X100699688Y-77856471D01*
X100973145Y-78518286D01*
X101479051Y-79025076D01*
X102140387Y-79299687D01*
X102856471Y-79300312D01*
X103518286Y-79026855D01*
X104025076Y-78520949D01*
X104299687Y-77859613D01*
X104299689Y-77856471D01*
X105199688Y-77856471D01*
X105473145Y-78518286D01*
X105979051Y-79025076D01*
X106640387Y-79299687D01*
X107356471Y-79300312D01*
X108018286Y-79026855D01*
X108525076Y-78520949D01*
X108799687Y-77859613D01*
X108799810Y-77717844D01*
X121399810Y-77717844D01*
X121566922Y-78122286D01*
X121876087Y-78431991D01*
X122280237Y-78599808D01*
X122717844Y-78600190D01*
X123040962Y-78466680D01*
X124599005Y-78466680D01*
X124707729Y-78582798D01*
X125144346Y-78612222D01*
X125292271Y-78582798D01*
X125400995Y-78466680D01*
X125000000Y-78065685D01*
X124599005Y-78466680D01*
X123040962Y-78466680D01*
X123122286Y-78433078D01*
X123431991Y-78123913D01*
X123599808Y-77719763D01*
X123599873Y-77644346D01*
X123887778Y-77644346D01*
X123917202Y-77792271D01*
X124033320Y-77900995D01*
X124434315Y-77500000D01*
X125565685Y-77500000D01*
X125966680Y-77900995D01*
X126082798Y-77792271D01*
X126112222Y-77355654D01*
X126082798Y-77207729D01*
X125966680Y-77099005D01*
X125565685Y-77500000D01*
X124434315Y-77500000D01*
X124033320Y-77099005D01*
X123917202Y-77207729D01*
X123887778Y-77644346D01*
X123599873Y-77644346D01*
X123600190Y-77282156D01*
X123433078Y-76877714D01*
X123123913Y-76568009D01*
X123040373Y-76533320D01*
X124599005Y-76533320D01*
X125000000Y-76934315D01*
X125234315Y-76700000D01*
X126394123Y-76700000D01*
X126394123Y-78300000D01*
X126415042Y-78411173D01*
X126480745Y-78513279D01*
X126580997Y-78581778D01*
X126700000Y-78605877D01*
X128300000Y-78605877D01*
X128411173Y-78584958D01*
X128513279Y-78519255D01*
X128581778Y-78419003D01*
X128605877Y-78300000D01*
X128605877Y-76700000D01*
X128584958Y-76588827D01*
X128519255Y-76486721D01*
X128419003Y-76418222D01*
X128300000Y-76394123D01*
X126700000Y-76394123D01*
X126588827Y-76415042D01*
X126486721Y-76480745D01*
X126418222Y-76580997D01*
X126394123Y-76700000D01*
X125234315Y-76700000D01*
X125400995Y-76533320D01*
X125292271Y-76417202D01*
X124855654Y-76387778D01*
X124707729Y-76417202D01*
X124599005Y-76533320D01*
X123040373Y-76533320D01*
X122719763Y-76400192D01*
X122282156Y-76399810D01*
X121877714Y-76566922D01*
X121568009Y-76876087D01*
X121400192Y-77280237D01*
X121399810Y-77717844D01*
X108799810Y-77717844D01*
X108800312Y-77143529D01*
X108526855Y-76481714D01*
X108020949Y-75974924D01*
X107359613Y-75700313D01*
X106643529Y-75699688D01*
X105981714Y-75973145D01*
X105474924Y-76479051D01*
X105200313Y-77140387D01*
X105199688Y-77856471D01*
X104299689Y-77856471D01*
X104300312Y-77143529D01*
X104026855Y-76481714D01*
X103520949Y-75974924D01*
X102859613Y-75700313D01*
X102143529Y-75699688D01*
X101481714Y-75973145D01*
X100974924Y-76479051D01*
X100700313Y-77140387D01*
X100699688Y-77856471D01*
X100375000Y-77856471D01*
X100375000Y-72856471D01*
X100699688Y-72856471D01*
X100973145Y-73518286D01*
X101479051Y-74025076D01*
X102140387Y-74299687D01*
X102856471Y-74300312D01*
X103518286Y-74026855D01*
X104025076Y-73520949D01*
X104299687Y-72859613D01*
X104299689Y-72856471D01*
X105199688Y-72856471D01*
X105473145Y-73518286D01*
X105979051Y-74025076D01*
X106640387Y-74299687D01*
X107356471Y-74300312D01*
X108018286Y-74026855D01*
X108525076Y-73520949D01*
X108799687Y-72859613D01*
X108800312Y-72143529D01*
X108526855Y-71481714D01*
X108445284Y-71400000D01*
X127300000Y-71400000D01*
X127300000Y-74550000D01*
X141900001Y-74550000D01*
X141900001Y-71400000D01*
X127300000Y-71400000D01*
X108445284Y-71400000D01*
X108020949Y-70974924D01*
X107359613Y-70700313D01*
X106643529Y-70699688D01*
X105981714Y-70973145D01*
X105474924Y-71479051D01*
X105200313Y-72140387D01*
X105199688Y-72856471D01*
X104299689Y-72856471D01*
X104300312Y-72143529D01*
X104026855Y-71481714D01*
X103520949Y-70974924D01*
X102859613Y-70700313D01*
X102143529Y-70699688D01*
X101481714Y-70973145D01*
X100974924Y-71479051D01*
X100700313Y-72140387D01*
X100699688Y-72856471D01*
X100375000Y-72856471D01*
X100375000Y-70375000D01*
X146080952Y-70375000D01*
X146080952Y-74250000D01*
X146080952Y-74250000D01*
G37*
X146080952Y-74250000D02*
X154625000Y-74250000D01*
X154625000Y-94625000D01*
X100375000Y-94625000D01*
X100375000Y-92856471D01*
X100699688Y-92856471D01*
X100973145Y-93518286D01*
X101479051Y-94025076D01*
X102140387Y-94299687D01*
X102856471Y-94300312D01*
X103518286Y-94026855D01*
X104025076Y-93520949D01*
X104299687Y-92859613D01*
X104299689Y-92856471D01*
X105199688Y-92856471D01*
X105473145Y-93518286D01*
X105979051Y-94025076D01*
X106640387Y-94299687D01*
X107356471Y-94300312D01*
X108018286Y-94026855D01*
X108525076Y-93520949D01*
X108799687Y-92859613D01*
X108799689Y-92856471D01*
X129699688Y-92856471D01*
X129973145Y-93518286D01*
X130479051Y-94025076D01*
X131140387Y-94299687D01*
X131856471Y-94300312D01*
X132518286Y-94026855D01*
X133025076Y-93520949D01*
X133299687Y-92859613D01*
X133299689Y-92856471D01*
X134699688Y-92856471D01*
X134973145Y-93518286D01*
X135479051Y-94025076D01*
X136140387Y-94299687D01*
X136856471Y-94300312D01*
X137518286Y-94026855D01*
X138025076Y-93520949D01*
X138299687Y-92859613D01*
X138299689Y-92856471D01*
X139199688Y-92856471D01*
X139473145Y-93518286D01*
X139979051Y-94025076D01*
X140640387Y-94299687D01*
X141356471Y-94300312D01*
X142018286Y-94026855D01*
X142525076Y-93520949D01*
X142799687Y-92859613D01*
X142799689Y-92856471D01*
X144199688Y-92856471D01*
X144473145Y-93518286D01*
X144979051Y-94025076D01*
X145640387Y-94299687D01*
X146356471Y-94300312D01*
X147018286Y-94026855D01*
X147525076Y-93520949D01*
X147799687Y-92859613D01*
X147800312Y-92143529D01*
X147526855Y-91481714D01*
X147020949Y-90974924D01*
X146359613Y-90700313D01*
X145643529Y-90699688D01*
X144981714Y-90973145D01*
X144474924Y-91479051D01*
X144200313Y-92140387D01*
X144199688Y-92856471D01*
X142799689Y-92856471D01*
X142800312Y-92143529D01*
X142526855Y-91481714D01*
X142020949Y-90974924D01*
X141359613Y-90700313D01*
X140643529Y-90699688D01*
X139981714Y-90973145D01*
X139474924Y-91479051D01*
X139200313Y-92140387D01*
X139199688Y-92856471D01*
X138299689Y-92856471D01*
X138300312Y-92143529D01*
X138026855Y-91481714D01*
X137520949Y-90974924D01*
X136859613Y-90700313D01*
X136143529Y-90699688D01*
X135481714Y-90973145D01*
X134974924Y-91479051D01*
X134700313Y-92140387D01*
X134699688Y-92856471D01*
X133299689Y-92856471D01*
X133300312Y-92143529D01*
X133026855Y-91481714D01*
X132520949Y-90974924D01*
X131859613Y-90700313D01*
X131143529Y-90699688D01*
X130481714Y-90973145D01*
X129974924Y-91479051D01*
X129700313Y-92140387D01*
X129699688Y-92856471D01*
X108799689Y-92856471D01*
X108800312Y-92143529D01*
X108526855Y-91481714D01*
X108020949Y-90974924D01*
X107359613Y-90700313D01*
X106643529Y-90699688D01*
X105981714Y-90973145D01*
X105474924Y-91479051D01*
X105200313Y-92140387D01*
X105199688Y-92856471D01*
X104299689Y-92856471D01*
X104300312Y-92143529D01*
X104026855Y-91481714D01*
X103520949Y-90974924D01*
X102859613Y-90700313D01*
X102143529Y-90699688D01*
X101481714Y-90973145D01*
X100974924Y-91479051D01*
X100700313Y-92140387D01*
X100699688Y-92856471D01*
X100375000Y-92856471D01*
X100375000Y-87856471D01*
X100699688Y-87856471D01*
X100973145Y-88518286D01*
X101479051Y-89025076D01*
X102140387Y-89299687D01*
X102856471Y-89300312D01*
X103518286Y-89026855D01*
X104025076Y-88520949D01*
X104299687Y-87859613D01*
X104299689Y-87856471D01*
X105199688Y-87856471D01*
X105473145Y-88518286D01*
X105979051Y-89025076D01*
X106640387Y-89299687D01*
X107356471Y-89300312D01*
X108018286Y-89026855D01*
X108525076Y-88520949D01*
X108593373Y-88356471D01*
X129699688Y-88356471D01*
X129973145Y-89018286D01*
X130479051Y-89525076D01*
X131140387Y-89799687D01*
X131856471Y-89800312D01*
X132518286Y-89526855D01*
X133025076Y-89020949D01*
X133299687Y-88359613D01*
X133299689Y-88356471D01*
X134699688Y-88356471D01*
X134973145Y-89018286D01*
X135479051Y-89525076D01*
X136140387Y-89799687D01*
X136856471Y-89800312D01*
X137518286Y-89526855D01*
X138025076Y-89020949D01*
X138299687Y-88359613D01*
X138299689Y-88356471D01*
X139199688Y-88356471D01*
X139473145Y-89018286D01*
X139979051Y-89525076D01*
X140640387Y-89799687D01*
X141356471Y-89800312D01*
X142018286Y-89526855D01*
X142525076Y-89020949D01*
X142799687Y-88359613D01*
X142799689Y-88356471D01*
X144199688Y-88356471D01*
X144473145Y-89018286D01*
X144979051Y-89525076D01*
X145640387Y-89799687D01*
X146356471Y-89800312D01*
X147018286Y-89526855D01*
X147525076Y-89020949D01*
X147799687Y-88359613D01*
X147800312Y-87643529D01*
X147526855Y-86981714D01*
X147020949Y-86474924D01*
X146359613Y-86200313D01*
X145643529Y-86199688D01*
X144981714Y-86473145D01*
X144474924Y-86979051D01*
X144200313Y-87640387D01*
X144199688Y-88356471D01*
X142799689Y-88356471D01*
X142800312Y-87643529D01*
X142526855Y-86981714D01*
X142020949Y-86474924D01*
X141359613Y-86200313D01*
X140643529Y-86199688D01*
X139981714Y-86473145D01*
X139474924Y-86979051D01*
X139200313Y-87640387D01*
X139199688Y-88356471D01*
X138299689Y-88356471D01*
X138300312Y-87643529D01*
X138026855Y-86981714D01*
X137520949Y-86474924D01*
X136859613Y-86200313D01*
X136143529Y-86199688D01*
X135481714Y-86473145D01*
X134974924Y-86979051D01*
X134700313Y-87640387D01*
X134699688Y-88356471D01*
X133299689Y-88356471D01*
X133300312Y-87643529D01*
X133026855Y-86981714D01*
X132520949Y-86474924D01*
X131859613Y-86200313D01*
X131143529Y-86199688D01*
X130481714Y-86473145D01*
X129974924Y-86979051D01*
X129700313Y-87640387D01*
X129699688Y-88356471D01*
X108593373Y-88356471D01*
X108799687Y-87859613D01*
X108800312Y-87143529D01*
X108526855Y-86481714D01*
X108020949Y-85974924D01*
X107359613Y-85700313D01*
X106643529Y-85699688D01*
X105981714Y-85973145D01*
X105474924Y-86479051D01*
X105200313Y-87140387D01*
X105199688Y-87856471D01*
X104299689Y-87856471D01*
X104300312Y-87143529D01*
X104026855Y-86481714D01*
X103520949Y-85974924D01*
X102859613Y-85700313D01*
X102143529Y-85699688D01*
X101481714Y-85973145D01*
X100974924Y-86479051D01*
X100700313Y-87140387D01*
X100699688Y-87856471D01*
X100375000Y-87856471D01*
X100375000Y-83153531D01*
X102199428Y-83153531D01*
X102700765Y-84366858D01*
X103628259Y-85295973D01*
X104840710Y-85799426D01*
X106153531Y-85800572D01*
X107366858Y-85299235D01*
X108295973Y-84371741D01*
X108799426Y-83159290D01*
X108799431Y-83153531D01*
X146199428Y-83153531D01*
X146700765Y-84366858D01*
X147628259Y-85295973D01*
X148840710Y-85799426D01*
X150153531Y-85800572D01*
X151366858Y-85299235D01*
X152295973Y-84371741D01*
X152799426Y-83159290D01*
X152800572Y-81846469D01*
X152299235Y-80633142D01*
X151371741Y-79704027D01*
X150159290Y-79200574D01*
X148846469Y-79199428D01*
X147633142Y-79700765D01*
X146704027Y-80628259D01*
X146200574Y-81840710D01*
X146199428Y-83153531D01*
X108799431Y-83153531D01*
X108800572Y-81846469D01*
X108299235Y-80633142D01*
X107371741Y-79704027D01*
X106159290Y-79200574D01*
X104846469Y-79199428D01*
X103633142Y-79700765D01*
X102704027Y-80628259D01*
X102200574Y-81840710D01*
X102199428Y-83153531D01*
X100375000Y-83153531D01*
X100375000Y-77856471D01*
X100699688Y-77856471D01*
X100973145Y-78518286D01*
X101479051Y-79025076D01*
X102140387Y-79299687D01*
X102856471Y-79300312D01*
X103518286Y-79026855D01*
X104025076Y-78520949D01*
X104299687Y-77859613D01*
X104299689Y-77856471D01*
X105199688Y-77856471D01*
X105473145Y-78518286D01*
X105979051Y-79025076D01*
X106640387Y-79299687D01*
X107356471Y-79300312D01*
X108018286Y-79026855D01*
X108525076Y-78520949D01*
X108799687Y-77859613D01*
X108799810Y-77717844D01*
X121399810Y-77717844D01*
X121566922Y-78122286D01*
X121876087Y-78431991D01*
X122280237Y-78599808D01*
X122717844Y-78600190D01*
X123040962Y-78466680D01*
X124599005Y-78466680D01*
X124707729Y-78582798D01*
X125144346Y-78612222D01*
X125292271Y-78582798D01*
X125400995Y-78466680D01*
X125000000Y-78065685D01*
X124599005Y-78466680D01*
X123040962Y-78466680D01*
X123122286Y-78433078D01*
X123431991Y-78123913D01*
X123599808Y-77719763D01*
X123599873Y-77644346D01*
X123887778Y-77644346D01*
X123917202Y-77792271D01*
X124033320Y-77900995D01*
X124434315Y-77500000D01*
X125565685Y-77500000D01*
X125966680Y-77900995D01*
X126082798Y-77792271D01*
X126112222Y-77355654D01*
X126082798Y-77207729D01*
X125966680Y-77099005D01*
X125565685Y-77500000D01*
X124434315Y-77500000D01*
X124033320Y-77099005D01*
X123917202Y-77207729D01*
X123887778Y-77644346D01*
X123599873Y-77644346D01*
X123600190Y-77282156D01*
X123433078Y-76877714D01*
X123123913Y-76568009D01*
X123040373Y-76533320D01*
X124599005Y-76533320D01*
X125000000Y-76934315D01*
X125234315Y-76700000D01*
X126394123Y-76700000D01*
X126394123Y-78300000D01*
X126415042Y-78411173D01*
X126480745Y-78513279D01*
X126580997Y-78581778D01*
X126700000Y-78605877D01*
X128300000Y-78605877D01*
X128411173Y-78584958D01*
X128513279Y-78519255D01*
X128581778Y-78419003D01*
X128605877Y-78300000D01*
X128605877Y-76700000D01*
X128584958Y-76588827D01*
X128519255Y-76486721D01*
X128419003Y-76418222D01*
X128300000Y-76394123D01*
X126700000Y-76394123D01*
X126588827Y-76415042D01*
X126486721Y-76480745D01*
X126418222Y-76580997D01*
X126394123Y-76700000D01*
X125234315Y-76700000D01*
X125400995Y-76533320D01*
X125292271Y-76417202D01*
X124855654Y-76387778D01*
X124707729Y-76417202D01*
X124599005Y-76533320D01*
X123040373Y-76533320D01*
X122719763Y-76400192D01*
X122282156Y-76399810D01*
X121877714Y-76566922D01*
X121568009Y-76876087D01*
X121400192Y-77280237D01*
X121399810Y-77717844D01*
X108799810Y-77717844D01*
X108800312Y-77143529D01*
X108526855Y-76481714D01*
X108020949Y-75974924D01*
X107359613Y-75700313D01*
X106643529Y-75699688D01*
X105981714Y-75973145D01*
X105474924Y-76479051D01*
X105200313Y-77140387D01*
X105199688Y-77856471D01*
X104299689Y-77856471D01*
X104300312Y-77143529D01*
X104026855Y-76481714D01*
X103520949Y-75974924D01*
X102859613Y-75700313D01*
X102143529Y-75699688D01*
X101481714Y-75973145D01*
X100974924Y-76479051D01*
X100700313Y-77140387D01*
X100699688Y-77856471D01*
X100375000Y-77856471D01*
X100375000Y-72856471D01*
X100699688Y-72856471D01*
X100973145Y-73518286D01*
X101479051Y-74025076D01*
X102140387Y-74299687D01*
X102856471Y-74300312D01*
X103518286Y-74026855D01*
X104025076Y-73520949D01*
X104299687Y-72859613D01*
X104299689Y-72856471D01*
X105199688Y-72856471D01*
X105473145Y-73518286D01*
X105979051Y-74025076D01*
X106640387Y-74299687D01*
X107356471Y-74300312D01*
X108018286Y-74026855D01*
X108525076Y-73520949D01*
X108799687Y-72859613D01*
X108800312Y-72143529D01*
X108526855Y-71481714D01*
X108445284Y-71400000D01*
X127300000Y-71400000D01*
X127300000Y-74550000D01*
X141900001Y-74550000D01*
X141900001Y-71400000D01*
X127300000Y-71400000D01*
X108445284Y-71400000D01*
X108020949Y-70974924D01*
X107359613Y-70700313D01*
X106643529Y-70699688D01*
X105981714Y-70973145D01*
X105474924Y-71479051D01*
X105200313Y-72140387D01*
X105199688Y-72856471D01*
X104299689Y-72856471D01*
X104300312Y-72143529D01*
X104026855Y-71481714D01*
X103520949Y-70974924D01*
X102859613Y-70700313D01*
X102143529Y-70699688D01*
X101481714Y-70973145D01*
X100974924Y-71479051D01*
X100700313Y-72140387D01*
X100699688Y-72856471D01*
X100375000Y-72856471D01*
X100375000Y-70375000D01*
X146080952Y-70375000D01*
X146080952Y-74250000D01*
M02*
