M48
;DRILL file {KiCad 4.0.4-stable} date 09/09/16 10:58:31
;FORMAT={-:-/ absolute / metric / decimal}
FMAT,2
METRIC,TZ
T1C0.300
T2C1.100
T3C3.000
T4C3.300
%
G90
G05
M71
T1
X109.25Y-72.75
X109.25Y-75.
X109.25Y-77.25
X118.5Y-77.75
X120.Y-71.
X121.5Y-75.
X122.5Y-92.
X123.5Y-87.5
X124.Y-92.
X125.Y-71.
X125.Y-87.5
X128.75Y-92.25
X128.75Y-94.25
X129.25Y-87.25
X130.Y-71.
X135.Y-71.
X139.Y-85.
X140.Y-71.
X140.Y-75.
X140.5Y-85.
X143.5Y-73.
X145.Y-71.
X146.5Y-75.
X146.5Y-80.
X146.5Y-85.
X150.Y-94.
X150.75Y-75.
X154.Y-75.
X154.Y-80.
X154.Y-85.
X154.Y-90.
X154.Y-94.
T2
X122.5Y-77.5
X125.Y-77.5
X127.5Y-77.5
T3
X102.5Y-72.5
X102.5Y-77.5
X102.5Y-87.5
X102.5Y-92.5
X107.Y-72.5
X107.Y-77.5
X107.Y-87.5
X107.Y-92.5
X131.5Y-88.
X131.5Y-92.5
X136.5Y-88.
X136.5Y-92.5
X141.Y-88.
X141.Y-92.5
X146.Y-88.
X146.Y-92.5
T4
X105.5Y-82.5
X149.5Y-82.5
T0
M30
