G04 #@! TF.FileFunction,Soldermask,Bot*
%FSLAX46Y46*%
G04 Gerber Fmt 4.6, Leading zero omitted, Abs format (unit mm)*
G04 Created by KiCad (PCBNEW 4.0.4-stable) date 09/09/16 11:01:10*
%MOMM*%
%LPD*%
G01*
G04 APERTURE LIST*
%ADD10C,0.100000*%
G04 APERTURE END LIST*
D10*
G36*
X128786762Y-93900232D02*
X128854000Y-93914034D01*
X128917273Y-93940631D01*
X128974181Y-93979016D01*
X129022543Y-94027717D01*
X129060531Y-94084892D01*
X129086683Y-94148345D01*
X129099949Y-94215337D01*
X129099949Y-94215342D01*
X129100016Y-94215681D01*
X129098921Y-94294079D01*
X129098844Y-94294418D01*
X129098844Y-94294424D01*
X129083715Y-94361011D01*
X129055796Y-94423720D01*
X129016235Y-94479802D01*
X128966525Y-94527139D01*
X128908570Y-94563918D01*
X128844575Y-94588741D01*
X128776984Y-94600658D01*
X128708360Y-94599222D01*
X128641317Y-94584481D01*
X128578422Y-94557003D01*
X128522060Y-94517830D01*
X128474378Y-94468454D01*
X128437196Y-94410760D01*
X128411929Y-94346942D01*
X128399538Y-94279426D01*
X128400497Y-94210795D01*
X128414766Y-94143661D01*
X128441808Y-94080569D01*
X128480586Y-94023935D01*
X128529628Y-93975909D01*
X128587059Y-93938327D01*
X128650704Y-93912613D01*
X128718122Y-93899752D01*
X128786762Y-93900232D01*
X128786762Y-93900232D01*
G37*
G36*
X150036762Y-93650232D02*
X150104000Y-93664034D01*
X150167273Y-93690631D01*
X150224181Y-93729016D01*
X150272543Y-93777717D01*
X150310531Y-93834892D01*
X150336683Y-93898345D01*
X150349949Y-93965337D01*
X150349949Y-93965342D01*
X150350016Y-93965681D01*
X150348921Y-94044079D01*
X150348844Y-94044418D01*
X150348844Y-94044424D01*
X150333715Y-94111011D01*
X150305796Y-94173720D01*
X150266235Y-94229802D01*
X150216525Y-94277139D01*
X150158570Y-94313918D01*
X150094575Y-94338741D01*
X150026984Y-94350658D01*
X149958360Y-94349222D01*
X149891317Y-94334481D01*
X149828422Y-94307003D01*
X149772060Y-94267830D01*
X149724378Y-94218454D01*
X149687196Y-94160760D01*
X149661929Y-94096942D01*
X149649538Y-94029426D01*
X149650497Y-93960795D01*
X149664766Y-93893661D01*
X149691808Y-93830569D01*
X149730586Y-93773935D01*
X149779628Y-93725909D01*
X149837059Y-93688327D01*
X149900704Y-93662613D01*
X149968122Y-93649752D01*
X150036762Y-93650232D01*
X150036762Y-93650232D01*
G37*
G36*
X154036762Y-93650232D02*
X154104000Y-93664034D01*
X154167273Y-93690631D01*
X154224181Y-93729016D01*
X154272543Y-93777717D01*
X154310531Y-93834892D01*
X154336683Y-93898345D01*
X154349949Y-93965337D01*
X154349949Y-93965342D01*
X154350016Y-93965681D01*
X154348921Y-94044079D01*
X154348844Y-94044418D01*
X154348844Y-94044424D01*
X154333715Y-94111011D01*
X154305796Y-94173720D01*
X154266235Y-94229802D01*
X154216525Y-94277139D01*
X154158570Y-94313918D01*
X154094575Y-94338741D01*
X154026984Y-94350658D01*
X153958360Y-94349222D01*
X153891317Y-94334481D01*
X153828422Y-94307003D01*
X153772060Y-94267830D01*
X153724378Y-94218454D01*
X153687196Y-94160760D01*
X153661929Y-94096942D01*
X153649538Y-94029426D01*
X153650497Y-93960795D01*
X153664766Y-93893661D01*
X153691808Y-93830569D01*
X153730586Y-93773935D01*
X153779628Y-93725909D01*
X153837059Y-93688327D01*
X153900704Y-93662613D01*
X153968122Y-93649752D01*
X154036762Y-93650232D01*
X154036762Y-93650232D01*
G37*
G36*
X107162803Y-90951030D02*
X107460567Y-91012153D01*
X107740784Y-91129945D01*
X107992788Y-91299923D01*
X108206979Y-91515615D01*
X108375194Y-91768798D01*
X108491027Y-92049830D01*
X108550001Y-92347671D01*
X108550001Y-92347681D01*
X108550067Y-92348015D01*
X108545219Y-92695207D01*
X108545142Y-92695545D01*
X108545142Y-92695553D01*
X108477878Y-92991622D01*
X108354241Y-93269315D01*
X108179023Y-93517703D01*
X107958891Y-93727331D01*
X107702244Y-93890204D01*
X107418843Y-94000129D01*
X107119492Y-94052912D01*
X106815588Y-94046546D01*
X106518703Y-93981272D01*
X106240161Y-93859579D01*
X105990549Y-93686095D01*
X105779394Y-93467437D01*
X105614733Y-93211934D01*
X105502833Y-92929308D01*
X105447960Y-92630325D01*
X105452205Y-92326385D01*
X105515402Y-92029061D01*
X105635151Y-91749667D01*
X105806884Y-91498857D01*
X106024065Y-91286178D01*
X106278416Y-91119735D01*
X106560253Y-91005866D01*
X106858836Y-90948908D01*
X107162803Y-90951030D01*
X107162803Y-90951030D01*
G37*
G36*
X102662803Y-90951030D02*
X102960567Y-91012153D01*
X103240784Y-91129945D01*
X103492788Y-91299923D01*
X103706979Y-91515615D01*
X103875194Y-91768798D01*
X103991027Y-92049830D01*
X104050001Y-92347671D01*
X104050001Y-92347681D01*
X104050067Y-92348015D01*
X104045219Y-92695207D01*
X104045142Y-92695545D01*
X104045142Y-92695553D01*
X103977878Y-92991622D01*
X103854241Y-93269315D01*
X103679023Y-93517703D01*
X103458891Y-93727331D01*
X103202244Y-93890204D01*
X102918843Y-94000129D01*
X102619492Y-94052912D01*
X102315588Y-94046546D01*
X102018703Y-93981272D01*
X101740161Y-93859579D01*
X101490549Y-93686095D01*
X101279394Y-93467437D01*
X101114733Y-93211934D01*
X101002833Y-92929308D01*
X100947960Y-92630325D01*
X100952205Y-92326385D01*
X101015402Y-92029061D01*
X101135151Y-91749667D01*
X101306884Y-91498857D01*
X101524065Y-91286178D01*
X101778416Y-91119735D01*
X102060253Y-91005866D01*
X102358836Y-90948908D01*
X102662803Y-90951030D01*
X102662803Y-90951030D01*
G37*
G36*
X146162803Y-90951030D02*
X146460567Y-91012153D01*
X146740784Y-91129945D01*
X146992788Y-91299923D01*
X147206979Y-91515615D01*
X147375194Y-91768798D01*
X147491027Y-92049830D01*
X147550001Y-92347671D01*
X147550001Y-92347681D01*
X147550067Y-92348015D01*
X147545219Y-92695207D01*
X147545142Y-92695545D01*
X147545142Y-92695553D01*
X147477878Y-92991622D01*
X147354241Y-93269315D01*
X147179023Y-93517703D01*
X146958891Y-93727331D01*
X146702244Y-93890204D01*
X146418843Y-94000129D01*
X146119492Y-94052912D01*
X145815588Y-94046546D01*
X145518703Y-93981272D01*
X145240161Y-93859579D01*
X144990549Y-93686095D01*
X144779394Y-93467437D01*
X144614733Y-93211934D01*
X144502833Y-92929308D01*
X144447960Y-92630325D01*
X144452205Y-92326385D01*
X144515402Y-92029061D01*
X144635151Y-91749667D01*
X144806884Y-91498857D01*
X145024065Y-91286178D01*
X145278416Y-91119735D01*
X145560253Y-91005866D01*
X145858836Y-90948908D01*
X146162803Y-90951030D01*
X146162803Y-90951030D01*
G37*
G36*
X141162803Y-90951030D02*
X141460567Y-91012153D01*
X141740784Y-91129945D01*
X141992788Y-91299923D01*
X142206979Y-91515615D01*
X142375194Y-91768798D01*
X142491027Y-92049830D01*
X142550001Y-92347671D01*
X142550001Y-92347681D01*
X142550067Y-92348015D01*
X142545219Y-92695207D01*
X142545142Y-92695545D01*
X142545142Y-92695553D01*
X142477878Y-92991622D01*
X142354241Y-93269315D01*
X142179023Y-93517703D01*
X141958891Y-93727331D01*
X141702244Y-93890204D01*
X141418843Y-94000129D01*
X141119492Y-94052912D01*
X140815588Y-94046546D01*
X140518703Y-93981272D01*
X140240161Y-93859579D01*
X139990549Y-93686095D01*
X139779394Y-93467437D01*
X139614733Y-93211934D01*
X139502833Y-92929308D01*
X139447960Y-92630325D01*
X139452205Y-92326385D01*
X139515402Y-92029061D01*
X139635151Y-91749667D01*
X139806884Y-91498857D01*
X140024065Y-91286178D01*
X140278416Y-91119735D01*
X140560253Y-91005866D01*
X140858836Y-90948908D01*
X141162803Y-90951030D01*
X141162803Y-90951030D01*
G37*
G36*
X136662803Y-90951030D02*
X136960567Y-91012153D01*
X137240784Y-91129945D01*
X137492788Y-91299923D01*
X137706979Y-91515615D01*
X137875194Y-91768798D01*
X137991027Y-92049830D01*
X138050001Y-92347671D01*
X138050001Y-92347681D01*
X138050067Y-92348015D01*
X138045219Y-92695207D01*
X138045142Y-92695545D01*
X138045142Y-92695553D01*
X137977878Y-92991622D01*
X137854241Y-93269315D01*
X137679023Y-93517703D01*
X137458891Y-93727331D01*
X137202244Y-93890204D01*
X136918843Y-94000129D01*
X136619492Y-94052912D01*
X136315588Y-94046546D01*
X136018703Y-93981272D01*
X135740161Y-93859579D01*
X135490549Y-93686095D01*
X135279394Y-93467437D01*
X135114733Y-93211934D01*
X135002833Y-92929308D01*
X134947960Y-92630325D01*
X134952205Y-92326385D01*
X135015402Y-92029061D01*
X135135151Y-91749667D01*
X135306884Y-91498857D01*
X135524065Y-91286178D01*
X135778416Y-91119735D01*
X136060253Y-91005866D01*
X136358836Y-90948908D01*
X136662803Y-90951030D01*
X136662803Y-90951030D01*
G37*
G36*
X131662803Y-90951030D02*
X131960567Y-91012153D01*
X132240784Y-91129945D01*
X132492788Y-91299923D01*
X132706979Y-91515615D01*
X132875194Y-91768798D01*
X132991027Y-92049830D01*
X133050001Y-92347671D01*
X133050001Y-92347681D01*
X133050067Y-92348015D01*
X133045219Y-92695207D01*
X133045142Y-92695545D01*
X133045142Y-92695553D01*
X132977878Y-92991622D01*
X132854241Y-93269315D01*
X132679023Y-93517703D01*
X132458891Y-93727331D01*
X132202244Y-93890204D01*
X131918843Y-94000129D01*
X131619492Y-94052912D01*
X131315588Y-94046546D01*
X131018703Y-93981272D01*
X130740161Y-93859579D01*
X130490549Y-93686095D01*
X130279394Y-93467437D01*
X130114733Y-93211934D01*
X130002833Y-92929308D01*
X129947960Y-92630325D01*
X129952205Y-92326385D01*
X130015402Y-92029061D01*
X130135151Y-91749667D01*
X130306884Y-91498857D01*
X130524065Y-91286178D01*
X130778416Y-91119735D01*
X131060253Y-91005866D01*
X131358836Y-90948908D01*
X131662803Y-90951030D01*
X131662803Y-90951030D01*
G37*
G36*
X128786762Y-91900232D02*
X128854000Y-91914034D01*
X128917273Y-91940631D01*
X128974181Y-91979016D01*
X129022543Y-92027717D01*
X129060531Y-92084892D01*
X129086683Y-92148345D01*
X129099949Y-92215337D01*
X129099949Y-92215342D01*
X129100016Y-92215681D01*
X129098921Y-92294079D01*
X129098844Y-92294418D01*
X129098844Y-92294424D01*
X129083715Y-92361011D01*
X129055796Y-92423720D01*
X129016235Y-92479802D01*
X128966525Y-92527139D01*
X128908570Y-92563918D01*
X128844575Y-92588741D01*
X128776984Y-92600658D01*
X128708360Y-92599222D01*
X128641317Y-92584481D01*
X128578422Y-92557003D01*
X128522060Y-92517830D01*
X128474378Y-92468454D01*
X128437196Y-92410760D01*
X128411929Y-92346942D01*
X128399538Y-92279426D01*
X128400497Y-92210795D01*
X128414766Y-92143661D01*
X128441808Y-92080569D01*
X128480586Y-92023935D01*
X128529628Y-91975909D01*
X128587059Y-91938327D01*
X128650704Y-91912613D01*
X128718122Y-91899752D01*
X128786762Y-91900232D01*
X128786762Y-91900232D01*
G37*
G36*
X122536762Y-91650232D02*
X122604000Y-91664034D01*
X122667273Y-91690631D01*
X122724181Y-91729016D01*
X122772543Y-91777717D01*
X122810531Y-91834892D01*
X122836683Y-91898345D01*
X122849949Y-91965337D01*
X122849949Y-91965342D01*
X122850016Y-91965681D01*
X122848921Y-92044079D01*
X122848844Y-92044418D01*
X122848844Y-92044424D01*
X122833715Y-92111011D01*
X122805796Y-92173720D01*
X122766235Y-92229802D01*
X122716525Y-92277139D01*
X122658570Y-92313918D01*
X122594575Y-92338741D01*
X122526984Y-92350658D01*
X122458360Y-92349222D01*
X122391317Y-92334481D01*
X122328422Y-92307003D01*
X122272060Y-92267830D01*
X122224378Y-92218454D01*
X122187196Y-92160760D01*
X122161929Y-92096942D01*
X122149538Y-92029426D01*
X122150497Y-91960795D01*
X122164766Y-91893661D01*
X122191808Y-91830569D01*
X122230586Y-91773935D01*
X122279628Y-91725909D01*
X122337059Y-91688327D01*
X122400704Y-91662613D01*
X122468122Y-91649752D01*
X122536762Y-91650232D01*
X122536762Y-91650232D01*
G37*
G36*
X124036762Y-91650232D02*
X124104000Y-91664034D01*
X124167273Y-91690631D01*
X124224181Y-91729016D01*
X124272543Y-91777717D01*
X124310531Y-91834892D01*
X124336683Y-91898345D01*
X124349949Y-91965337D01*
X124349949Y-91965342D01*
X124350016Y-91965681D01*
X124348921Y-92044079D01*
X124348844Y-92044418D01*
X124348844Y-92044424D01*
X124333715Y-92111011D01*
X124305796Y-92173720D01*
X124266235Y-92229802D01*
X124216525Y-92277139D01*
X124158570Y-92313918D01*
X124094575Y-92338741D01*
X124026984Y-92350658D01*
X123958360Y-92349222D01*
X123891317Y-92334481D01*
X123828422Y-92307003D01*
X123772060Y-92267830D01*
X123724378Y-92218454D01*
X123687196Y-92160760D01*
X123661929Y-92096942D01*
X123649538Y-92029426D01*
X123650497Y-91960795D01*
X123664766Y-91893661D01*
X123691808Y-91830569D01*
X123730586Y-91773935D01*
X123779628Y-91725909D01*
X123837059Y-91688327D01*
X123900704Y-91662613D01*
X123968122Y-91649752D01*
X124036762Y-91650232D01*
X124036762Y-91650232D01*
G37*
G36*
X154036762Y-89650232D02*
X154104000Y-89664034D01*
X154167273Y-89690631D01*
X154224181Y-89729016D01*
X154272543Y-89777717D01*
X154310531Y-89834892D01*
X154336683Y-89898345D01*
X154349949Y-89965337D01*
X154349949Y-89965342D01*
X154350016Y-89965681D01*
X154348921Y-90044079D01*
X154348844Y-90044418D01*
X154348844Y-90044424D01*
X154333715Y-90111011D01*
X154305796Y-90173720D01*
X154266235Y-90229802D01*
X154216525Y-90277139D01*
X154158570Y-90313918D01*
X154094575Y-90338741D01*
X154026984Y-90350658D01*
X153958360Y-90349222D01*
X153891317Y-90334481D01*
X153828422Y-90307003D01*
X153772060Y-90267830D01*
X153724378Y-90218454D01*
X153687196Y-90160760D01*
X153661929Y-90096942D01*
X153649538Y-90029426D01*
X153650497Y-89960795D01*
X153664766Y-89893661D01*
X153691808Y-89830569D01*
X153730586Y-89773935D01*
X153779628Y-89725909D01*
X153837059Y-89688327D01*
X153900704Y-89662613D01*
X153968122Y-89649752D01*
X154036762Y-89650232D01*
X154036762Y-89650232D01*
G37*
G36*
X136662803Y-86451030D02*
X136960567Y-86512153D01*
X137240784Y-86629945D01*
X137492788Y-86799923D01*
X137706979Y-87015615D01*
X137875194Y-87268798D01*
X137991027Y-87549830D01*
X138050001Y-87847671D01*
X138050001Y-87847681D01*
X138050067Y-87848015D01*
X138045219Y-88195207D01*
X138045142Y-88195545D01*
X138045142Y-88195553D01*
X137977878Y-88491622D01*
X137854241Y-88769315D01*
X137679023Y-89017703D01*
X137458891Y-89227331D01*
X137202244Y-89390204D01*
X136918843Y-89500129D01*
X136619492Y-89552912D01*
X136315588Y-89546546D01*
X136018703Y-89481272D01*
X135740161Y-89359579D01*
X135490549Y-89186095D01*
X135279394Y-88967437D01*
X135114733Y-88711934D01*
X135002833Y-88429308D01*
X134947960Y-88130325D01*
X134952205Y-87826385D01*
X135015402Y-87529061D01*
X135135151Y-87249667D01*
X135306884Y-86998857D01*
X135524065Y-86786178D01*
X135778416Y-86619735D01*
X136060253Y-86505866D01*
X136358836Y-86448908D01*
X136662803Y-86451030D01*
X136662803Y-86451030D01*
G37*
G36*
X146162803Y-86451030D02*
X146460567Y-86512153D01*
X146740784Y-86629945D01*
X146992788Y-86799923D01*
X147206979Y-87015615D01*
X147375194Y-87268798D01*
X147491027Y-87549830D01*
X147550001Y-87847671D01*
X147550001Y-87847681D01*
X147550067Y-87848015D01*
X147545219Y-88195207D01*
X147545142Y-88195545D01*
X147545142Y-88195553D01*
X147477878Y-88491622D01*
X147354241Y-88769315D01*
X147179023Y-89017703D01*
X146958891Y-89227331D01*
X146702244Y-89390204D01*
X146418843Y-89500129D01*
X146119492Y-89552912D01*
X145815588Y-89546546D01*
X145518703Y-89481272D01*
X145240161Y-89359579D01*
X144990549Y-89186095D01*
X144779394Y-88967437D01*
X144614733Y-88711934D01*
X144502833Y-88429308D01*
X144447960Y-88130325D01*
X144452205Y-87826385D01*
X144515402Y-87529061D01*
X144635151Y-87249667D01*
X144806884Y-86998857D01*
X145024065Y-86786178D01*
X145278416Y-86619735D01*
X145560253Y-86505866D01*
X145858836Y-86448908D01*
X146162803Y-86451030D01*
X146162803Y-86451030D01*
G37*
G36*
X141162803Y-86451030D02*
X141460567Y-86512153D01*
X141740784Y-86629945D01*
X141992788Y-86799923D01*
X142206979Y-87015615D01*
X142375194Y-87268798D01*
X142491027Y-87549830D01*
X142550001Y-87847671D01*
X142550001Y-87847681D01*
X142550067Y-87848015D01*
X142545219Y-88195207D01*
X142545142Y-88195545D01*
X142545142Y-88195553D01*
X142477878Y-88491622D01*
X142354241Y-88769315D01*
X142179023Y-89017703D01*
X141958891Y-89227331D01*
X141702244Y-89390204D01*
X141418843Y-89500129D01*
X141119492Y-89552912D01*
X140815588Y-89546546D01*
X140518703Y-89481272D01*
X140240161Y-89359579D01*
X139990549Y-89186095D01*
X139779394Y-88967437D01*
X139614733Y-88711934D01*
X139502833Y-88429308D01*
X139447960Y-88130325D01*
X139452205Y-87826385D01*
X139515402Y-87529061D01*
X139635151Y-87249667D01*
X139806884Y-86998857D01*
X140024065Y-86786178D01*
X140278416Y-86619735D01*
X140560253Y-86505866D01*
X140858836Y-86448908D01*
X141162803Y-86451030D01*
X141162803Y-86451030D01*
G37*
G36*
X131662803Y-86451030D02*
X131960567Y-86512153D01*
X132240784Y-86629945D01*
X132492788Y-86799923D01*
X132706979Y-87015615D01*
X132875194Y-87268798D01*
X132991027Y-87549830D01*
X133050001Y-87847671D01*
X133050001Y-87847681D01*
X133050067Y-87848015D01*
X133045219Y-88195207D01*
X133045142Y-88195545D01*
X133045142Y-88195553D01*
X132977878Y-88491622D01*
X132854241Y-88769315D01*
X132679023Y-89017703D01*
X132458891Y-89227331D01*
X132202244Y-89390204D01*
X131918843Y-89500129D01*
X131619492Y-89552912D01*
X131315588Y-89546546D01*
X131018703Y-89481272D01*
X130740161Y-89359579D01*
X130490549Y-89186095D01*
X130279394Y-88967437D01*
X130114733Y-88711934D01*
X130002833Y-88429308D01*
X129947960Y-88130325D01*
X129952205Y-87826385D01*
X130015402Y-87529061D01*
X130135151Y-87249667D01*
X130306884Y-86998857D01*
X130524065Y-86786178D01*
X130778416Y-86619735D01*
X131060253Y-86505866D01*
X131358836Y-86448908D01*
X131662803Y-86451030D01*
X131662803Y-86451030D01*
G37*
G36*
X107162803Y-85951030D02*
X107460567Y-86012153D01*
X107740784Y-86129945D01*
X107992788Y-86299923D01*
X108206979Y-86515615D01*
X108375194Y-86768798D01*
X108491027Y-87049830D01*
X108550001Y-87347671D01*
X108550001Y-87347681D01*
X108550067Y-87348015D01*
X108545219Y-87695207D01*
X108545142Y-87695545D01*
X108545142Y-87695553D01*
X108477878Y-87991622D01*
X108354241Y-88269315D01*
X108179023Y-88517703D01*
X107958891Y-88727331D01*
X107702244Y-88890204D01*
X107418843Y-89000129D01*
X107119492Y-89052912D01*
X106815588Y-89046546D01*
X106518703Y-88981272D01*
X106240161Y-88859579D01*
X105990549Y-88686095D01*
X105779394Y-88467437D01*
X105614733Y-88211934D01*
X105502833Y-87929308D01*
X105447960Y-87630325D01*
X105452205Y-87326385D01*
X105515402Y-87029061D01*
X105635151Y-86749667D01*
X105806884Y-86498857D01*
X106024065Y-86286178D01*
X106278416Y-86119735D01*
X106560253Y-86005866D01*
X106858836Y-85948908D01*
X107162803Y-85951030D01*
X107162803Y-85951030D01*
G37*
G36*
X102662803Y-85951030D02*
X102960567Y-86012153D01*
X103240784Y-86129945D01*
X103492788Y-86299923D01*
X103706979Y-86515615D01*
X103875194Y-86768798D01*
X103991027Y-87049830D01*
X104050001Y-87347671D01*
X104050001Y-87347681D01*
X104050067Y-87348015D01*
X104045219Y-87695207D01*
X104045142Y-87695545D01*
X104045142Y-87695553D01*
X103977878Y-87991622D01*
X103854241Y-88269315D01*
X103679023Y-88517703D01*
X103458891Y-88727331D01*
X103202244Y-88890204D01*
X102918843Y-89000129D01*
X102619492Y-89052912D01*
X102315588Y-89046546D01*
X102018703Y-88981272D01*
X101740161Y-88859579D01*
X101490549Y-88686095D01*
X101279394Y-88467437D01*
X101114733Y-88211934D01*
X101002833Y-87929308D01*
X100947960Y-87630325D01*
X100952205Y-87326385D01*
X101015402Y-87029061D01*
X101135151Y-86749667D01*
X101306884Y-86498857D01*
X101524065Y-86286178D01*
X101778416Y-86119735D01*
X102060253Y-86005866D01*
X102358836Y-85948908D01*
X102662803Y-85951030D01*
X102662803Y-85951030D01*
G37*
G36*
X123536762Y-87150232D02*
X123604000Y-87164034D01*
X123667273Y-87190631D01*
X123724181Y-87229016D01*
X123772543Y-87277717D01*
X123810531Y-87334892D01*
X123836683Y-87398345D01*
X123849949Y-87465337D01*
X123849949Y-87465342D01*
X123850016Y-87465681D01*
X123848921Y-87544079D01*
X123848844Y-87544418D01*
X123848844Y-87544424D01*
X123833715Y-87611011D01*
X123805796Y-87673720D01*
X123766235Y-87729802D01*
X123716525Y-87777139D01*
X123658570Y-87813918D01*
X123594575Y-87838741D01*
X123526984Y-87850658D01*
X123458360Y-87849222D01*
X123391317Y-87834481D01*
X123328422Y-87807003D01*
X123272060Y-87767830D01*
X123224378Y-87718454D01*
X123187196Y-87660760D01*
X123161929Y-87596942D01*
X123149538Y-87529426D01*
X123150497Y-87460795D01*
X123164766Y-87393661D01*
X123191808Y-87330569D01*
X123230586Y-87273935D01*
X123279628Y-87225909D01*
X123337059Y-87188327D01*
X123400704Y-87162613D01*
X123468122Y-87149752D01*
X123536762Y-87150232D01*
X123536762Y-87150232D01*
G37*
G36*
X125036762Y-87150232D02*
X125104000Y-87164034D01*
X125167273Y-87190631D01*
X125224181Y-87229016D01*
X125272543Y-87277717D01*
X125310531Y-87334892D01*
X125336683Y-87398345D01*
X125349949Y-87465337D01*
X125349949Y-87465342D01*
X125350016Y-87465681D01*
X125348921Y-87544079D01*
X125348844Y-87544418D01*
X125348844Y-87544424D01*
X125333715Y-87611011D01*
X125305796Y-87673720D01*
X125266235Y-87729802D01*
X125216525Y-87777139D01*
X125158570Y-87813918D01*
X125094575Y-87838741D01*
X125026984Y-87850658D01*
X124958360Y-87849222D01*
X124891317Y-87834481D01*
X124828422Y-87807003D01*
X124772060Y-87767830D01*
X124724378Y-87718454D01*
X124687196Y-87660760D01*
X124661929Y-87596942D01*
X124649538Y-87529426D01*
X124650497Y-87460795D01*
X124664766Y-87393661D01*
X124691808Y-87330569D01*
X124730586Y-87273935D01*
X124779628Y-87225909D01*
X124837059Y-87188327D01*
X124900704Y-87162613D01*
X124968122Y-87149752D01*
X125036762Y-87150232D01*
X125036762Y-87150232D01*
G37*
G36*
X129286762Y-86900232D02*
X129354000Y-86914034D01*
X129417273Y-86940631D01*
X129474181Y-86979016D01*
X129522543Y-87027717D01*
X129560531Y-87084892D01*
X129586683Y-87148345D01*
X129599949Y-87215337D01*
X129599949Y-87215342D01*
X129600016Y-87215681D01*
X129598921Y-87294079D01*
X129598844Y-87294418D01*
X129598844Y-87294424D01*
X129583715Y-87361011D01*
X129555796Y-87423720D01*
X129516235Y-87479802D01*
X129466525Y-87527139D01*
X129408570Y-87563918D01*
X129344575Y-87588741D01*
X129276984Y-87600658D01*
X129208360Y-87599222D01*
X129141317Y-87584481D01*
X129078422Y-87557003D01*
X129022060Y-87517830D01*
X128974378Y-87468454D01*
X128937196Y-87410760D01*
X128911929Y-87346942D01*
X128899538Y-87279426D01*
X128900497Y-87210795D01*
X128914766Y-87143661D01*
X128941808Y-87080569D01*
X128980586Y-87023935D01*
X129029628Y-86975909D01*
X129087059Y-86938327D01*
X129150704Y-86912613D01*
X129218122Y-86899752D01*
X129286762Y-86900232D01*
X129286762Y-86900232D01*
G37*
G36*
X149820354Y-79452029D02*
X150406276Y-79572302D01*
X150957672Y-79804088D01*
X151453551Y-80138561D01*
X151875020Y-80562984D01*
X152206025Y-81061185D01*
X152433953Y-81614183D01*
X152550065Y-82200588D01*
X152550065Y-82200598D01*
X152550131Y-82200932D01*
X152540591Y-82884116D01*
X152540515Y-82884450D01*
X152540515Y-82884462D01*
X152408079Y-83467387D01*
X152164794Y-84013813D01*
X151820010Y-84502576D01*
X151386851Y-84915066D01*
X150881833Y-85235561D01*
X150324174Y-85451863D01*
X149735128Y-85555727D01*
X149137123Y-85543202D01*
X148552933Y-85414759D01*
X148004827Y-85175297D01*
X147513669Y-84833933D01*
X147098166Y-84403667D01*
X146774153Y-83900898D01*
X146553964Y-83344764D01*
X146445988Y-82756449D01*
X146454340Y-82158373D01*
X146578698Y-81573311D01*
X146814331Y-81023540D01*
X147152258Y-80530011D01*
X147579611Y-80111514D01*
X148080109Y-79783998D01*
X148634691Y-79559932D01*
X149222230Y-79447853D01*
X149820354Y-79452029D01*
X149820354Y-79452029D01*
G37*
G36*
X105820354Y-79452029D02*
X106406276Y-79572302D01*
X106957672Y-79804088D01*
X107453551Y-80138561D01*
X107875020Y-80562984D01*
X108206025Y-81061185D01*
X108433953Y-81614183D01*
X108550065Y-82200588D01*
X108550065Y-82200598D01*
X108550131Y-82200932D01*
X108540591Y-82884116D01*
X108540515Y-82884450D01*
X108540515Y-82884462D01*
X108408079Y-83467387D01*
X108164794Y-84013813D01*
X107820010Y-84502576D01*
X107386851Y-84915066D01*
X106881833Y-85235561D01*
X106324174Y-85451863D01*
X105735128Y-85555727D01*
X105137123Y-85543202D01*
X104552933Y-85414759D01*
X104004827Y-85175297D01*
X103513669Y-84833933D01*
X103098166Y-84403667D01*
X102774153Y-83900898D01*
X102553964Y-83344764D01*
X102445988Y-82756449D01*
X102454340Y-82158373D01*
X102578698Y-81573311D01*
X102814331Y-81023540D01*
X103152258Y-80530011D01*
X103579611Y-80111514D01*
X104080109Y-79783998D01*
X104634691Y-79559932D01*
X105222230Y-79447853D01*
X105820354Y-79452029D01*
X105820354Y-79452029D01*
G37*
G36*
X146536762Y-84650232D02*
X146604000Y-84664034D01*
X146667273Y-84690631D01*
X146724181Y-84729016D01*
X146772543Y-84777717D01*
X146810531Y-84834892D01*
X146836683Y-84898345D01*
X146849949Y-84965337D01*
X146849949Y-84965342D01*
X146850016Y-84965681D01*
X146848921Y-85044079D01*
X146848844Y-85044418D01*
X146848844Y-85044424D01*
X146833715Y-85111011D01*
X146805796Y-85173720D01*
X146766235Y-85229802D01*
X146716525Y-85277139D01*
X146658570Y-85313918D01*
X146594575Y-85338741D01*
X146526984Y-85350658D01*
X146458360Y-85349222D01*
X146391317Y-85334481D01*
X146328422Y-85307003D01*
X146272060Y-85267830D01*
X146224378Y-85218454D01*
X146187196Y-85160760D01*
X146161929Y-85096942D01*
X146149538Y-85029426D01*
X146150497Y-84960795D01*
X146164766Y-84893661D01*
X146191808Y-84830569D01*
X146230586Y-84773935D01*
X146279628Y-84725909D01*
X146337059Y-84688327D01*
X146400704Y-84662613D01*
X146468122Y-84649752D01*
X146536762Y-84650232D01*
X146536762Y-84650232D01*
G37*
G36*
X154036762Y-84650232D02*
X154104000Y-84664034D01*
X154167273Y-84690631D01*
X154224181Y-84729016D01*
X154272543Y-84777717D01*
X154310531Y-84834892D01*
X154336683Y-84898345D01*
X154349949Y-84965337D01*
X154349949Y-84965342D01*
X154350016Y-84965681D01*
X154348921Y-85044079D01*
X154348844Y-85044418D01*
X154348844Y-85044424D01*
X154333715Y-85111011D01*
X154305796Y-85173720D01*
X154266235Y-85229802D01*
X154216525Y-85277139D01*
X154158570Y-85313918D01*
X154094575Y-85338741D01*
X154026984Y-85350658D01*
X153958360Y-85349222D01*
X153891317Y-85334481D01*
X153828422Y-85307003D01*
X153772060Y-85267830D01*
X153724378Y-85218454D01*
X153687196Y-85160760D01*
X153661929Y-85096942D01*
X153649538Y-85029426D01*
X153650497Y-84960795D01*
X153664766Y-84893661D01*
X153691808Y-84830569D01*
X153730586Y-84773935D01*
X153779628Y-84725909D01*
X153837059Y-84688327D01*
X153900704Y-84662613D01*
X153968122Y-84649752D01*
X154036762Y-84650232D01*
X154036762Y-84650232D01*
G37*
G36*
X139036762Y-84650232D02*
X139104000Y-84664034D01*
X139167273Y-84690631D01*
X139224181Y-84729016D01*
X139272543Y-84777717D01*
X139310531Y-84834892D01*
X139336683Y-84898345D01*
X139349949Y-84965337D01*
X139349949Y-84965342D01*
X139350016Y-84965681D01*
X139348921Y-85044079D01*
X139348844Y-85044418D01*
X139348844Y-85044424D01*
X139333715Y-85111011D01*
X139305796Y-85173720D01*
X139266235Y-85229802D01*
X139216525Y-85277139D01*
X139158570Y-85313918D01*
X139094575Y-85338741D01*
X139026984Y-85350658D01*
X138958360Y-85349222D01*
X138891317Y-85334481D01*
X138828422Y-85307003D01*
X138772060Y-85267830D01*
X138724378Y-85218454D01*
X138687196Y-85160760D01*
X138661929Y-85096942D01*
X138649538Y-85029426D01*
X138650497Y-84960795D01*
X138664766Y-84893661D01*
X138691808Y-84830569D01*
X138730586Y-84773935D01*
X138779628Y-84725909D01*
X138837059Y-84688327D01*
X138900704Y-84662613D01*
X138968122Y-84649752D01*
X139036762Y-84650232D01*
X139036762Y-84650232D01*
G37*
G36*
X140536762Y-84650232D02*
X140604000Y-84664034D01*
X140667273Y-84690631D01*
X140724181Y-84729016D01*
X140772543Y-84777717D01*
X140810531Y-84834892D01*
X140836683Y-84898345D01*
X140849949Y-84965337D01*
X140849949Y-84965342D01*
X140850016Y-84965681D01*
X140848921Y-85044079D01*
X140848844Y-85044418D01*
X140848844Y-85044424D01*
X140833715Y-85111011D01*
X140805796Y-85173720D01*
X140766235Y-85229802D01*
X140716525Y-85277139D01*
X140658570Y-85313918D01*
X140594575Y-85338741D01*
X140526984Y-85350658D01*
X140458360Y-85349222D01*
X140391317Y-85334481D01*
X140328422Y-85307003D01*
X140272060Y-85267830D01*
X140224378Y-85218454D01*
X140187196Y-85160760D01*
X140161929Y-85096942D01*
X140149538Y-85029426D01*
X140150497Y-84960795D01*
X140164766Y-84893661D01*
X140191808Y-84830569D01*
X140230586Y-84773935D01*
X140279628Y-84725909D01*
X140337059Y-84688327D01*
X140400704Y-84662613D01*
X140468122Y-84649752D01*
X140536762Y-84650232D01*
X140536762Y-84650232D01*
G37*
G36*
X154036762Y-79650232D02*
X154104000Y-79664034D01*
X154167273Y-79690631D01*
X154224181Y-79729016D01*
X154272543Y-79777717D01*
X154310531Y-79834892D01*
X154336683Y-79898345D01*
X154349949Y-79965337D01*
X154349949Y-79965342D01*
X154350016Y-79965681D01*
X154348921Y-80044079D01*
X154348844Y-80044418D01*
X154348844Y-80044424D01*
X154333715Y-80111011D01*
X154305796Y-80173720D01*
X154266235Y-80229802D01*
X154216525Y-80277139D01*
X154158570Y-80313918D01*
X154094575Y-80338741D01*
X154026984Y-80350658D01*
X153958360Y-80349222D01*
X153891317Y-80334481D01*
X153828422Y-80307003D01*
X153772060Y-80267830D01*
X153724378Y-80218454D01*
X153687196Y-80160760D01*
X153661929Y-80096942D01*
X153649538Y-80029426D01*
X153650497Y-79960795D01*
X153664766Y-79893661D01*
X153691808Y-79830569D01*
X153730586Y-79773935D01*
X153779628Y-79725909D01*
X153837059Y-79688327D01*
X153900704Y-79662613D01*
X153968122Y-79649752D01*
X154036762Y-79650232D01*
X154036762Y-79650232D01*
G37*
G36*
X146536762Y-79650232D02*
X146604000Y-79664034D01*
X146667273Y-79690631D01*
X146724181Y-79729016D01*
X146772543Y-79777717D01*
X146810531Y-79834892D01*
X146836683Y-79898345D01*
X146849949Y-79965337D01*
X146849949Y-79965342D01*
X146850016Y-79965681D01*
X146848921Y-80044079D01*
X146848844Y-80044418D01*
X146848844Y-80044424D01*
X146833715Y-80111011D01*
X146805796Y-80173720D01*
X146766235Y-80229802D01*
X146716525Y-80277139D01*
X146658570Y-80313918D01*
X146594575Y-80338741D01*
X146526984Y-80350658D01*
X146458360Y-80349222D01*
X146391317Y-80334481D01*
X146328422Y-80307003D01*
X146272060Y-80267830D01*
X146224378Y-80218454D01*
X146187196Y-80160760D01*
X146161929Y-80096942D01*
X146149538Y-80029426D01*
X146150497Y-79960795D01*
X146164766Y-79893661D01*
X146191808Y-79830569D01*
X146230586Y-79773935D01*
X146279628Y-79725909D01*
X146337059Y-79688327D01*
X146400704Y-79662613D01*
X146468122Y-79649752D01*
X146536762Y-79650232D01*
X146536762Y-79650232D01*
G37*
G36*
X107162803Y-75951030D02*
X107460567Y-76012153D01*
X107740784Y-76129945D01*
X107992788Y-76299923D01*
X108206979Y-76515615D01*
X108375194Y-76768798D01*
X108491027Y-77049830D01*
X108550001Y-77347671D01*
X108550001Y-77347681D01*
X108550067Y-77348015D01*
X108545219Y-77695207D01*
X108545142Y-77695545D01*
X108545142Y-77695553D01*
X108477878Y-77991622D01*
X108354241Y-78269315D01*
X108179023Y-78517703D01*
X107958891Y-78727331D01*
X107702244Y-78890204D01*
X107418843Y-79000129D01*
X107119492Y-79052912D01*
X106815588Y-79046546D01*
X106518703Y-78981272D01*
X106240161Y-78859579D01*
X105990549Y-78686095D01*
X105779394Y-78467437D01*
X105614733Y-78211934D01*
X105502833Y-77929308D01*
X105447960Y-77630325D01*
X105452205Y-77326385D01*
X105515402Y-77029061D01*
X105635151Y-76749667D01*
X105806884Y-76498857D01*
X106024065Y-76286178D01*
X106278416Y-76119735D01*
X106560253Y-76005866D01*
X106858836Y-75948908D01*
X107162803Y-75951030D01*
X107162803Y-75951030D01*
G37*
G36*
X102662803Y-75951030D02*
X102960567Y-76012153D01*
X103240784Y-76129945D01*
X103492788Y-76299923D01*
X103706979Y-76515615D01*
X103875194Y-76768798D01*
X103991027Y-77049830D01*
X104050001Y-77347671D01*
X104050001Y-77347681D01*
X104050067Y-77348015D01*
X104045219Y-77695207D01*
X104045142Y-77695545D01*
X104045142Y-77695553D01*
X103977878Y-77991622D01*
X103854241Y-78269315D01*
X103679023Y-78517703D01*
X103458891Y-78727331D01*
X103202244Y-78890204D01*
X102918843Y-79000129D01*
X102619492Y-79052912D01*
X102315588Y-79046546D01*
X102018703Y-78981272D01*
X101740161Y-78859579D01*
X101490549Y-78686095D01*
X101279394Y-78467437D01*
X101114733Y-78211934D01*
X101002833Y-77929308D01*
X100947960Y-77630325D01*
X100952205Y-77326385D01*
X101015402Y-77029061D01*
X101135151Y-76749667D01*
X101306884Y-76498857D01*
X101524065Y-76286178D01*
X101778416Y-76119735D01*
X102060253Y-76005866D01*
X102358836Y-75948908D01*
X102662803Y-75951030D01*
X102662803Y-75951030D01*
G37*
G36*
X122589279Y-76650564D02*
X122752570Y-76684083D01*
X122906236Y-76748678D01*
X123044433Y-76841892D01*
X123161893Y-76960176D01*
X123254140Y-77099018D01*
X123317661Y-77253132D01*
X123349971Y-77416309D01*
X123349971Y-77416319D01*
X123350037Y-77416653D01*
X123347378Y-77607049D01*
X123347302Y-77607383D01*
X123347302Y-77607395D01*
X123310451Y-77769599D01*
X123242649Y-77921883D01*
X123146562Y-78058095D01*
X123025843Y-78173054D01*
X122885102Y-78262370D01*
X122729688Y-78322653D01*
X122565529Y-78351598D01*
X122398872Y-78348107D01*
X122236062Y-78312311D01*
X122083315Y-78245577D01*
X121946429Y-78150439D01*
X121830634Y-78030530D01*
X121740337Y-77890417D01*
X121678972Y-77735428D01*
X121648880Y-77571467D01*
X121651208Y-77404791D01*
X121685864Y-77241744D01*
X121751534Y-77088527D01*
X121845710Y-76950986D01*
X121964810Y-76834354D01*
X122104292Y-76743079D01*
X122258848Y-76680635D01*
X122422586Y-76649400D01*
X122589279Y-76650564D01*
X122589279Y-76650564D01*
G37*
G36*
X125089279Y-76650564D02*
X125252570Y-76684083D01*
X125406236Y-76748678D01*
X125544433Y-76841892D01*
X125661893Y-76960176D01*
X125754140Y-77099018D01*
X125817661Y-77253132D01*
X125849971Y-77416309D01*
X125849971Y-77416319D01*
X125850037Y-77416653D01*
X125847378Y-77607049D01*
X125847302Y-77607383D01*
X125847302Y-77607395D01*
X125810451Y-77769599D01*
X125742649Y-77921883D01*
X125646562Y-78058095D01*
X125525843Y-78173054D01*
X125385102Y-78262370D01*
X125229688Y-78322653D01*
X125065529Y-78351598D01*
X124898872Y-78348107D01*
X124736062Y-78312311D01*
X124583315Y-78245577D01*
X124446429Y-78150439D01*
X124330634Y-78030530D01*
X124240337Y-77890417D01*
X124178972Y-77735428D01*
X124148880Y-77571467D01*
X124151208Y-77404791D01*
X124185864Y-77241744D01*
X124251534Y-77088527D01*
X124345710Y-76950986D01*
X124464810Y-76834354D01*
X124604292Y-76743079D01*
X124758848Y-76680635D01*
X124922586Y-76649400D01*
X125089279Y-76650564D01*
X125089279Y-76650564D01*
G37*
G36*
X128350000Y-78350000D02*
X126650000Y-78350000D01*
X126650000Y-76650000D01*
X128350000Y-76650000D01*
X128350000Y-78350000D01*
X128350000Y-78350000D01*
G37*
G36*
X118536762Y-77400232D02*
X118604000Y-77414034D01*
X118667273Y-77440631D01*
X118724181Y-77479016D01*
X118772543Y-77527717D01*
X118810531Y-77584892D01*
X118836683Y-77648345D01*
X118849949Y-77715337D01*
X118849949Y-77715342D01*
X118850016Y-77715681D01*
X118848921Y-77794079D01*
X118848844Y-77794418D01*
X118848844Y-77794424D01*
X118833715Y-77861011D01*
X118805796Y-77923720D01*
X118766235Y-77979802D01*
X118716525Y-78027139D01*
X118658570Y-78063918D01*
X118594575Y-78088741D01*
X118526984Y-78100658D01*
X118458360Y-78099222D01*
X118391317Y-78084481D01*
X118328422Y-78057003D01*
X118272060Y-78017830D01*
X118224378Y-77968454D01*
X118187196Y-77910760D01*
X118161929Y-77846942D01*
X118149538Y-77779426D01*
X118150497Y-77710795D01*
X118164766Y-77643661D01*
X118191808Y-77580569D01*
X118230586Y-77523935D01*
X118279628Y-77475909D01*
X118337059Y-77438327D01*
X118400704Y-77412613D01*
X118468122Y-77399752D01*
X118536762Y-77400232D01*
X118536762Y-77400232D01*
G37*
G36*
X109286762Y-76900232D02*
X109354000Y-76914034D01*
X109417273Y-76940631D01*
X109474181Y-76979016D01*
X109522543Y-77027717D01*
X109560531Y-77084892D01*
X109586683Y-77148345D01*
X109599949Y-77215337D01*
X109599949Y-77215342D01*
X109600016Y-77215681D01*
X109598921Y-77294079D01*
X109598844Y-77294418D01*
X109598844Y-77294424D01*
X109583715Y-77361011D01*
X109555796Y-77423720D01*
X109516235Y-77479802D01*
X109466525Y-77527139D01*
X109408570Y-77563918D01*
X109344575Y-77588741D01*
X109276984Y-77600658D01*
X109208360Y-77599222D01*
X109141317Y-77584481D01*
X109078422Y-77557003D01*
X109022060Y-77517830D01*
X108974378Y-77468454D01*
X108937196Y-77410760D01*
X108911929Y-77346942D01*
X108899538Y-77279426D01*
X108900497Y-77210795D01*
X108914766Y-77143661D01*
X108941808Y-77080569D01*
X108980586Y-77023935D01*
X109029628Y-76975909D01*
X109087059Y-76938327D01*
X109150704Y-76912613D01*
X109218122Y-76899752D01*
X109286762Y-76900232D01*
X109286762Y-76900232D01*
G37*
G36*
X140036762Y-74650232D02*
X140104000Y-74664034D01*
X140167273Y-74690631D01*
X140224181Y-74729016D01*
X140272543Y-74777717D01*
X140310531Y-74834892D01*
X140336683Y-74898345D01*
X140349949Y-74965337D01*
X140349949Y-74965342D01*
X140350016Y-74965681D01*
X140348921Y-75044079D01*
X140348844Y-75044418D01*
X140348844Y-75044424D01*
X140333715Y-75111011D01*
X140305796Y-75173720D01*
X140266235Y-75229802D01*
X140216525Y-75277139D01*
X140158570Y-75313918D01*
X140094575Y-75338741D01*
X140026984Y-75350658D01*
X139958360Y-75349222D01*
X139891317Y-75334481D01*
X139828422Y-75307003D01*
X139772060Y-75267830D01*
X139724378Y-75218454D01*
X139687196Y-75160760D01*
X139661929Y-75096942D01*
X139649538Y-75029426D01*
X139650497Y-74960795D01*
X139664766Y-74893661D01*
X139691808Y-74830569D01*
X139730586Y-74773935D01*
X139779628Y-74725909D01*
X139837059Y-74688327D01*
X139900704Y-74662613D01*
X139968122Y-74649752D01*
X140036762Y-74650232D01*
X140036762Y-74650232D01*
G37*
G36*
X146536762Y-74650232D02*
X146604000Y-74664034D01*
X146667273Y-74690631D01*
X146724181Y-74729016D01*
X146772543Y-74777717D01*
X146810531Y-74834892D01*
X146836683Y-74898345D01*
X146849949Y-74965337D01*
X146849949Y-74965342D01*
X146850016Y-74965681D01*
X146848921Y-75044079D01*
X146848844Y-75044418D01*
X146848844Y-75044424D01*
X146833715Y-75111011D01*
X146805796Y-75173720D01*
X146766235Y-75229802D01*
X146716525Y-75277139D01*
X146658570Y-75313918D01*
X146594575Y-75338741D01*
X146526984Y-75350658D01*
X146458360Y-75349222D01*
X146391317Y-75334481D01*
X146328422Y-75307003D01*
X146272060Y-75267830D01*
X146224378Y-75218454D01*
X146187196Y-75160760D01*
X146161929Y-75096942D01*
X146149538Y-75029426D01*
X146150497Y-74960795D01*
X146164766Y-74893661D01*
X146191808Y-74830569D01*
X146230586Y-74773935D01*
X146279628Y-74725909D01*
X146337059Y-74688327D01*
X146400704Y-74662613D01*
X146468122Y-74649752D01*
X146536762Y-74650232D01*
X146536762Y-74650232D01*
G37*
G36*
X150786762Y-74650232D02*
X150854000Y-74664034D01*
X150917273Y-74690631D01*
X150974181Y-74729016D01*
X151022543Y-74777717D01*
X151060531Y-74834892D01*
X151086683Y-74898345D01*
X151099949Y-74965337D01*
X151099949Y-74965342D01*
X151100016Y-74965681D01*
X151098921Y-75044079D01*
X151098844Y-75044418D01*
X151098844Y-75044424D01*
X151083715Y-75111011D01*
X151055796Y-75173720D01*
X151016235Y-75229802D01*
X150966525Y-75277139D01*
X150908570Y-75313918D01*
X150844575Y-75338741D01*
X150776984Y-75350658D01*
X150708360Y-75349222D01*
X150641317Y-75334481D01*
X150578422Y-75307003D01*
X150522060Y-75267830D01*
X150474378Y-75218454D01*
X150437196Y-75160760D01*
X150411929Y-75096942D01*
X150399538Y-75029426D01*
X150400497Y-74960795D01*
X150414766Y-74893661D01*
X150441808Y-74830569D01*
X150480586Y-74773935D01*
X150529628Y-74725909D01*
X150587059Y-74688327D01*
X150650704Y-74662613D01*
X150718122Y-74649752D01*
X150786762Y-74650232D01*
X150786762Y-74650232D01*
G37*
G36*
X154036762Y-74650232D02*
X154104000Y-74664034D01*
X154167273Y-74690631D01*
X154224181Y-74729016D01*
X154272543Y-74777717D01*
X154310531Y-74834892D01*
X154336683Y-74898345D01*
X154349949Y-74965337D01*
X154349949Y-74965342D01*
X154350016Y-74965681D01*
X154348921Y-75044079D01*
X154348844Y-75044418D01*
X154348844Y-75044424D01*
X154333715Y-75111011D01*
X154305796Y-75173720D01*
X154266235Y-75229802D01*
X154216525Y-75277139D01*
X154158570Y-75313918D01*
X154094575Y-75338741D01*
X154026984Y-75350658D01*
X153958360Y-75349222D01*
X153891317Y-75334481D01*
X153828422Y-75307003D01*
X153772060Y-75267830D01*
X153724378Y-75218454D01*
X153687196Y-75160760D01*
X153661929Y-75096942D01*
X153649538Y-75029426D01*
X153650497Y-74960795D01*
X153664766Y-74893661D01*
X153691808Y-74830569D01*
X153730586Y-74773935D01*
X153779628Y-74725909D01*
X153837059Y-74688327D01*
X153900704Y-74662613D01*
X153968122Y-74649752D01*
X154036762Y-74650232D01*
X154036762Y-74650232D01*
G37*
G36*
X121536762Y-74650232D02*
X121604000Y-74664034D01*
X121667273Y-74690631D01*
X121724181Y-74729016D01*
X121772543Y-74777717D01*
X121810531Y-74834892D01*
X121836683Y-74898345D01*
X121849949Y-74965337D01*
X121849949Y-74965342D01*
X121850016Y-74965681D01*
X121848921Y-75044079D01*
X121848844Y-75044418D01*
X121848844Y-75044424D01*
X121833715Y-75111011D01*
X121805796Y-75173720D01*
X121766235Y-75229802D01*
X121716525Y-75277139D01*
X121658570Y-75313918D01*
X121594575Y-75338741D01*
X121526984Y-75350658D01*
X121458360Y-75349222D01*
X121391317Y-75334481D01*
X121328422Y-75307003D01*
X121272060Y-75267830D01*
X121224378Y-75218454D01*
X121187196Y-75160760D01*
X121161929Y-75096942D01*
X121149538Y-75029426D01*
X121150497Y-74960795D01*
X121164766Y-74893661D01*
X121191808Y-74830569D01*
X121230586Y-74773935D01*
X121279628Y-74725909D01*
X121337059Y-74688327D01*
X121400704Y-74662613D01*
X121468122Y-74649752D01*
X121536762Y-74650232D01*
X121536762Y-74650232D01*
G37*
G36*
X109286762Y-74650232D02*
X109354000Y-74664034D01*
X109417273Y-74690631D01*
X109474181Y-74729016D01*
X109522543Y-74777717D01*
X109560531Y-74834892D01*
X109586683Y-74898345D01*
X109599949Y-74965337D01*
X109599949Y-74965342D01*
X109600016Y-74965681D01*
X109598921Y-75044079D01*
X109598844Y-75044418D01*
X109598844Y-75044424D01*
X109583715Y-75111011D01*
X109555796Y-75173720D01*
X109516235Y-75229802D01*
X109466525Y-75277139D01*
X109408570Y-75313918D01*
X109344575Y-75338741D01*
X109276984Y-75350658D01*
X109208360Y-75349222D01*
X109141317Y-75334481D01*
X109078422Y-75307003D01*
X109022060Y-75267830D01*
X108974378Y-75218454D01*
X108937196Y-75160760D01*
X108911929Y-75096942D01*
X108899538Y-75029426D01*
X108900497Y-74960795D01*
X108914766Y-74893661D01*
X108941808Y-74830569D01*
X108980586Y-74773935D01*
X109029628Y-74725909D01*
X109087059Y-74688327D01*
X109150704Y-74662613D01*
X109218122Y-74649752D01*
X109286762Y-74650232D01*
X109286762Y-74650232D01*
G37*
G36*
X102662803Y-70951030D02*
X102960567Y-71012153D01*
X103240784Y-71129945D01*
X103492788Y-71299923D01*
X103706979Y-71515615D01*
X103875194Y-71768798D01*
X103991027Y-72049830D01*
X104050001Y-72347671D01*
X104050001Y-72347681D01*
X104050067Y-72348015D01*
X104045219Y-72695207D01*
X104045142Y-72695545D01*
X104045142Y-72695553D01*
X103977878Y-72991622D01*
X103854241Y-73269315D01*
X103679023Y-73517703D01*
X103458891Y-73727331D01*
X103202244Y-73890204D01*
X102918843Y-74000129D01*
X102619492Y-74052912D01*
X102315588Y-74046546D01*
X102018703Y-73981272D01*
X101740161Y-73859579D01*
X101490549Y-73686095D01*
X101279394Y-73467437D01*
X101114733Y-73211934D01*
X101002833Y-72929308D01*
X100947960Y-72630325D01*
X100952205Y-72326385D01*
X101015402Y-72029061D01*
X101135151Y-71749667D01*
X101306884Y-71498857D01*
X101524065Y-71286178D01*
X101778416Y-71119735D01*
X102060253Y-71005866D01*
X102358836Y-70948908D01*
X102662803Y-70951030D01*
X102662803Y-70951030D01*
G37*
G36*
X107162803Y-70951030D02*
X107460567Y-71012153D01*
X107740784Y-71129945D01*
X107992788Y-71299923D01*
X108206979Y-71515615D01*
X108375194Y-71768798D01*
X108491027Y-72049830D01*
X108550001Y-72347671D01*
X108550001Y-72347681D01*
X108550067Y-72348015D01*
X108545219Y-72695207D01*
X108545142Y-72695545D01*
X108545142Y-72695553D01*
X108477878Y-72991622D01*
X108354241Y-73269315D01*
X108179023Y-73517703D01*
X107958891Y-73727331D01*
X107702244Y-73890204D01*
X107418843Y-74000129D01*
X107119492Y-74052912D01*
X106815588Y-74046546D01*
X106518703Y-73981272D01*
X106240161Y-73859579D01*
X105990549Y-73686095D01*
X105779394Y-73467437D01*
X105614733Y-73211934D01*
X105502833Y-72929308D01*
X105447960Y-72630325D01*
X105452205Y-72326385D01*
X105515402Y-72029061D01*
X105635151Y-71749667D01*
X105806884Y-71498857D01*
X106024065Y-71286178D01*
X106278416Y-71119735D01*
X106560253Y-71005866D01*
X106858836Y-70948908D01*
X107162803Y-70951030D01*
X107162803Y-70951030D01*
G37*
G36*
X143536762Y-72650232D02*
X143604000Y-72664034D01*
X143667273Y-72690631D01*
X143724181Y-72729016D01*
X143772543Y-72777717D01*
X143810531Y-72834892D01*
X143836683Y-72898345D01*
X143849949Y-72965337D01*
X143849949Y-72965342D01*
X143850016Y-72965681D01*
X143848921Y-73044079D01*
X143848844Y-73044418D01*
X143848844Y-73044424D01*
X143833715Y-73111011D01*
X143805796Y-73173720D01*
X143766235Y-73229802D01*
X143716525Y-73277139D01*
X143658570Y-73313918D01*
X143594575Y-73338741D01*
X143526984Y-73350658D01*
X143458360Y-73349222D01*
X143391317Y-73334481D01*
X143328422Y-73307003D01*
X143272060Y-73267830D01*
X143224378Y-73218454D01*
X143187196Y-73160760D01*
X143161929Y-73096942D01*
X143149538Y-73029426D01*
X143150497Y-72960795D01*
X143164766Y-72893661D01*
X143191808Y-72830569D01*
X143230586Y-72773935D01*
X143279628Y-72725909D01*
X143337059Y-72688327D01*
X143400704Y-72662613D01*
X143468122Y-72649752D01*
X143536762Y-72650232D01*
X143536762Y-72650232D01*
G37*
G36*
X109286762Y-72400232D02*
X109354000Y-72414034D01*
X109417273Y-72440631D01*
X109474181Y-72479016D01*
X109522543Y-72527717D01*
X109560531Y-72584892D01*
X109586683Y-72648345D01*
X109599949Y-72715337D01*
X109599949Y-72715342D01*
X109600016Y-72715681D01*
X109598921Y-72794079D01*
X109598844Y-72794418D01*
X109598844Y-72794424D01*
X109583715Y-72861011D01*
X109555796Y-72923720D01*
X109516235Y-72979802D01*
X109466525Y-73027139D01*
X109408570Y-73063918D01*
X109344575Y-73088741D01*
X109276984Y-73100658D01*
X109208360Y-73099222D01*
X109141317Y-73084481D01*
X109078422Y-73057003D01*
X109022060Y-73017830D01*
X108974378Y-72968454D01*
X108937196Y-72910760D01*
X108911929Y-72846942D01*
X108899538Y-72779426D01*
X108900497Y-72710795D01*
X108914766Y-72643661D01*
X108941808Y-72580569D01*
X108980586Y-72523935D01*
X109029628Y-72475909D01*
X109087059Y-72438327D01*
X109150704Y-72412613D01*
X109218122Y-72399752D01*
X109286762Y-72400232D01*
X109286762Y-72400232D01*
G37*
G36*
X130036762Y-70650232D02*
X130104000Y-70664034D01*
X130167273Y-70690631D01*
X130224181Y-70729016D01*
X130272543Y-70777717D01*
X130310531Y-70834892D01*
X130336683Y-70898345D01*
X130349949Y-70965337D01*
X130349949Y-70965342D01*
X130350016Y-70965681D01*
X130348921Y-71044079D01*
X130348844Y-71044418D01*
X130348844Y-71044424D01*
X130333715Y-71111011D01*
X130305796Y-71173720D01*
X130266235Y-71229802D01*
X130216525Y-71277139D01*
X130158570Y-71313918D01*
X130094575Y-71338741D01*
X130026984Y-71350658D01*
X129958360Y-71349222D01*
X129891317Y-71334481D01*
X129828422Y-71307003D01*
X129772060Y-71267830D01*
X129724378Y-71218454D01*
X129687196Y-71160760D01*
X129661929Y-71096942D01*
X129649538Y-71029426D01*
X129650497Y-70960795D01*
X129664766Y-70893661D01*
X129691808Y-70830569D01*
X129730586Y-70773935D01*
X129779628Y-70725909D01*
X129837059Y-70688327D01*
X129900704Y-70662613D01*
X129968122Y-70649752D01*
X130036762Y-70650232D01*
X130036762Y-70650232D01*
G37*
G36*
X120036762Y-70650232D02*
X120104000Y-70664034D01*
X120167273Y-70690631D01*
X120224181Y-70729016D01*
X120272543Y-70777717D01*
X120310531Y-70834892D01*
X120336683Y-70898345D01*
X120349949Y-70965337D01*
X120349949Y-70965342D01*
X120350016Y-70965681D01*
X120348921Y-71044079D01*
X120348844Y-71044418D01*
X120348844Y-71044424D01*
X120333715Y-71111011D01*
X120305796Y-71173720D01*
X120266235Y-71229802D01*
X120216525Y-71277139D01*
X120158570Y-71313918D01*
X120094575Y-71338741D01*
X120026984Y-71350658D01*
X119958360Y-71349222D01*
X119891317Y-71334481D01*
X119828422Y-71307003D01*
X119772060Y-71267830D01*
X119724378Y-71218454D01*
X119687196Y-71160760D01*
X119661929Y-71096942D01*
X119649538Y-71029426D01*
X119650497Y-70960795D01*
X119664766Y-70893661D01*
X119691808Y-70830569D01*
X119730586Y-70773935D01*
X119779628Y-70725909D01*
X119837059Y-70688327D01*
X119900704Y-70662613D01*
X119968122Y-70649752D01*
X120036762Y-70650232D01*
X120036762Y-70650232D01*
G37*
G36*
X145036762Y-70650232D02*
X145104000Y-70664034D01*
X145167273Y-70690631D01*
X145224181Y-70729016D01*
X145272543Y-70777717D01*
X145310531Y-70834892D01*
X145336683Y-70898345D01*
X145349949Y-70965337D01*
X145349949Y-70965342D01*
X145350016Y-70965681D01*
X145348921Y-71044079D01*
X145348844Y-71044418D01*
X145348844Y-71044424D01*
X145333715Y-71111011D01*
X145305796Y-71173720D01*
X145266235Y-71229802D01*
X145216525Y-71277139D01*
X145158570Y-71313918D01*
X145094575Y-71338741D01*
X145026984Y-71350658D01*
X144958360Y-71349222D01*
X144891317Y-71334481D01*
X144828422Y-71307003D01*
X144772060Y-71267830D01*
X144724378Y-71218454D01*
X144687196Y-71160760D01*
X144661929Y-71096942D01*
X144649538Y-71029426D01*
X144650497Y-70960795D01*
X144664766Y-70893661D01*
X144691808Y-70830569D01*
X144730586Y-70773935D01*
X144779628Y-70725909D01*
X144837059Y-70688327D01*
X144900704Y-70662613D01*
X144968122Y-70649752D01*
X145036762Y-70650232D01*
X145036762Y-70650232D01*
G37*
G36*
X140036762Y-70650232D02*
X140104000Y-70664034D01*
X140167273Y-70690631D01*
X140224181Y-70729016D01*
X140272543Y-70777717D01*
X140310531Y-70834892D01*
X140336683Y-70898345D01*
X140349949Y-70965337D01*
X140349949Y-70965342D01*
X140350016Y-70965681D01*
X140348921Y-71044079D01*
X140348844Y-71044418D01*
X140348844Y-71044424D01*
X140333715Y-71111011D01*
X140305796Y-71173720D01*
X140266235Y-71229802D01*
X140216525Y-71277139D01*
X140158570Y-71313918D01*
X140094575Y-71338741D01*
X140026984Y-71350658D01*
X139958360Y-71349222D01*
X139891317Y-71334481D01*
X139828422Y-71307003D01*
X139772060Y-71267830D01*
X139724378Y-71218454D01*
X139687196Y-71160760D01*
X139661929Y-71096942D01*
X139649538Y-71029426D01*
X139650497Y-70960795D01*
X139664766Y-70893661D01*
X139691808Y-70830569D01*
X139730586Y-70773935D01*
X139779628Y-70725909D01*
X139837059Y-70688327D01*
X139900704Y-70662613D01*
X139968122Y-70649752D01*
X140036762Y-70650232D01*
X140036762Y-70650232D01*
G37*
G36*
X135036762Y-70650232D02*
X135104000Y-70664034D01*
X135167273Y-70690631D01*
X135224181Y-70729016D01*
X135272543Y-70777717D01*
X135310531Y-70834892D01*
X135336683Y-70898345D01*
X135349949Y-70965337D01*
X135349949Y-70965342D01*
X135350016Y-70965681D01*
X135348921Y-71044079D01*
X135348844Y-71044418D01*
X135348844Y-71044424D01*
X135333715Y-71111011D01*
X135305796Y-71173720D01*
X135266235Y-71229802D01*
X135216525Y-71277139D01*
X135158570Y-71313918D01*
X135094575Y-71338741D01*
X135026984Y-71350658D01*
X134958360Y-71349222D01*
X134891317Y-71334481D01*
X134828422Y-71307003D01*
X134772060Y-71267830D01*
X134724378Y-71218454D01*
X134687196Y-71160760D01*
X134661929Y-71096942D01*
X134649538Y-71029426D01*
X134650497Y-70960795D01*
X134664766Y-70893661D01*
X134691808Y-70830569D01*
X134730586Y-70773935D01*
X134779628Y-70725909D01*
X134837059Y-70688327D01*
X134900704Y-70662613D01*
X134968122Y-70649752D01*
X135036762Y-70650232D01*
X135036762Y-70650232D01*
G37*
G36*
X125036762Y-70650232D02*
X125104000Y-70664034D01*
X125167273Y-70690631D01*
X125224181Y-70729016D01*
X125272543Y-70777717D01*
X125310531Y-70834892D01*
X125336683Y-70898345D01*
X125349949Y-70965337D01*
X125349949Y-70965342D01*
X125350016Y-70965681D01*
X125348921Y-71044079D01*
X125348844Y-71044418D01*
X125348844Y-71044424D01*
X125333715Y-71111011D01*
X125305796Y-71173720D01*
X125266235Y-71229802D01*
X125216525Y-71277139D01*
X125158570Y-71313918D01*
X125094575Y-71338741D01*
X125026984Y-71350658D01*
X124958360Y-71349222D01*
X124891317Y-71334481D01*
X124828422Y-71307003D01*
X124772060Y-71267830D01*
X124724378Y-71218454D01*
X124687196Y-71160760D01*
X124661929Y-71096942D01*
X124649538Y-71029426D01*
X124650497Y-70960795D01*
X124664766Y-70893661D01*
X124691808Y-70830569D01*
X124730586Y-70773935D01*
X124779628Y-70725909D01*
X124837059Y-70688327D01*
X124900704Y-70662613D01*
X124968122Y-70649752D01*
X125036762Y-70650232D01*
X125036762Y-70650232D01*
G37*
M02*
