M48
;DRILL file {KiCad 4.0.4-stable} date 09/09/16 12:13:39
;FORMAT={-:-/ absolute / metric / decimal}
FMAT,2
METRIC,TZ
T1C0.200
T2C0.300
T3C0.762
T4C0.800
T5C0.900
T6C0.950
T7C1.000
T8C1.001
T9C1.016
T10C1.100
T11C1.200
T12C1.600
T13C2.300
T14C2.301
T15C3.300
%
G90
G05
M71
T1
X27.2Y-157.65
X30.25Y-157.687
X30.95Y-157.2
X30.95Y-158.35
X31.286Y-150.651
X32.1Y-151.
X32.1Y-152.7
X32.1Y-153.75
X32.3Y-139.3
X32.975Y-131.3
X33.Y-123.3
X35.075Y-66.25
X35.15Y-55.3
X35.9Y-66.825
X36.Y-113.45
X36.Y-114.25
X36.8Y-67.8
X37.025Y-123.2
X37.025Y-131.4
X37.025Y-139.4
X38.05Y-149.
X38.35Y-45.
X39.Y-112.5
X39.Y-113.4
X39.6Y-149.5
X39.8Y-147.1
X40.2Y-150.5
X40.4Y-87.15
X40.4Y-91.9
X40.775Y-44.175
X40.775Y-46.925
X41.15Y-86.7
X41.175Y-91.175
X41.25Y-147.875
X42.775Y-46.925
X42.8Y-41.875
X42.8Y-44.275
X43.Y-117.6
X43.Y-121.
X43.65Y-113.875
X43.65Y-116.15
X43.65Y-120.325
X43.7Y-111.925
X44.084Y-151.025
X44.6Y-91.3
X44.9Y-62.4
X45.55Y-63.85
X45.95Y-87.625
X46.2Y-65.9
X46.225Y-66.7
X46.9Y-65.4
X47.Y-95.4
X48.Y-97.4
X48.15Y-40.85
X48.2Y-74.8
X48.35Y-78.105
X48.843Y-109.666
X48.9Y-65.375
X49.Y-110.45
X49.05Y-108.75
X49.05Y-149.25
X49.35Y-66.725
X49.54Y-79.34
X49.6Y-89.8
X49.6Y-93.8
X49.625Y-73.275
X49.7Y-84.5
X49.7Y-85.5
X50.175Y-66.725
X50.225Y-61.4
X50.225Y-65.375
X50.3Y-83.85
X50.303Y-80.603
X50.45Y-73.25
X50.75Y-66.075
X50.95Y-83.2
X51.05Y-87.5
X51.075Y-71.46
X51.35Y-73.25
X51.45Y-62.7
X51.6Y-74.8
X51.6Y-149.7
X51.7Y-86.9
X52.05Y-62.075
X52.225Y-109.6
X52.35Y-86.25
X52.5Y-60.8
X52.6Y-66.775
X52.85Y-92.4
X52.85Y-110.3
X53.1Y-57.2
X53.1Y-85.1
X53.125Y-58.2
X53.15Y-99.35
X53.2Y-73.25
X53.225Y-118.45
X53.325Y-64.025
X53.4Y-91.8
X53.45Y-83.25
X53.45Y-108.95
X53.6Y-156.2
X53.892Y-84.692
X53.9Y-100.1
X54.4Y-101.7
X54.425Y-57.725
X54.475Y-60.025
X54.6Y-104.7
X54.625Y-90.525
X54.8Y-105.6
X55.225Y-89.9
X55.3Y-100.8
X55.597Y-77.821
X55.637Y-77.022
X55.875Y-91.415
X55.95Y-89.375
X56.3Y-28.3
X56.3Y-131.3
X56.8Y-62.35
X56.95Y-118.475
X57.Y-130.6
X57.2Y-103.6
X57.4Y-28.3
X57.6Y-62.331
X57.85Y-102.95
X58.673Y-59.95
X58.8Y-75.925
X59.575Y-45.
X59.788Y-60.818
X60.2Y-41.7
X60.5Y-37.8
X60.5Y-38.6
X61.25Y-77.15
X61.4Y-54.2
X61.4Y-58.7
X61.994Y-59.306
X64.1Y-37.7
X64.1Y-38.6
X64.1Y-39.6
X64.65Y-44.95
X64.675Y-57.275
X64.975Y-77.125
X65.35Y-95.05
X65.775Y-53.175
X66.2Y-21.625
X66.2Y-94.95
X66.2Y-140.75
X66.25Y-144.75
X66.25Y-146.85
X66.35Y-137.6
X66.8Y-65.
X66.8Y-68.4
X66.9Y-71.1
X67.Y-76.7
X67.5Y-68.
X67.5Y-70.5
X67.55Y-64.6
X67.575Y-52.4
X67.602Y-75.947
X67.95Y-66.75
X68.182Y-69.914
X68.385Y-80.951
X68.4Y-57.9
X68.4Y-58.808
X68.4Y-59.7
X68.4Y-76.
X68.55Y-135.65
X68.78Y-66.724
X68.8Y-51.075
X68.9Y-69.35
X69.1Y-141.3
X69.145Y-139.425
X69.183Y-81.004
X69.4Y-76.75
X69.5Y-55.2
X69.7Y-38.6
X69.85Y-26.
X69.867Y-135.667
X70.15Y-81.15
X70.196Y-55.995
X70.5Y-59.5
X70.5Y-60.3
X70.5Y-58.7
X70.75Y-74.775
X71.13Y-55.853
X71.15Y-26.
X71.289Y-58.024
X71.6Y-56.5
X71.816Y-57.335
X72.6Y-38.6
X73.5Y-58.701
X73.511Y-57.901
X73.516Y-57.1
X73.847Y-64.491
X73.85Y-47.
X73.95Y-59.501
X73.992Y-76.458
X74.Y-77.45
X74.1Y-65.25
X74.4Y-60.257
X74.55Y-44.35
X74.55Y-46.45
X75.05Y-95.7
X75.1Y-56.7
X75.1Y-57.6
X75.1Y-90.9
X75.2Y-82.625
X75.425Y-150.325
X75.6Y-47.75
X75.65Y-58.4
X76.2Y-90.9
X76.2Y-93.825
X76.3Y-65.2
X76.303Y-66.017
X76.5Y-45.95
X76.75Y-59.4
X76.8Y-56.65
X77.1Y-90.9
X77.1Y-93.9
X77.717Y-64.499
X77.9Y-90.9
X77.9Y-93.9
X78.025Y-81.4
X78.4Y-65.2
X78.4Y-66.
X79.1Y-61.8
X79.25Y-47.65
X81.2Y-115.3
X81.2Y-116.1
X81.2Y-116.9
X81.2Y-117.8
X81.65Y-118.9
X82.2Y-72.1
X82.3Y-89.9
X82.375Y-70.225
X82.4Y-121.3
X82.65Y-78.1
X83.Y-68.4
X83.Y-90.9
X83.Y-91.7
X83.Y-92.5
X83.Y-93.3
X83.Y-94.2
X83.Y-120.55
X83.004Y-115.396
X83.1Y-72.1
X83.9Y-68.4
X83.95Y-46.45
X84.Y-119.65
X84.1Y-70.5
X84.1Y-71.3
X84.1Y-72.1
X84.242Y-118.749
X84.3Y-47.75
X85.35Y-47.8
X85.65Y-95.564
X85.925Y-47.175
X86.325Y-124.65
X86.975Y-124.05
X87.5Y-92.35
X87.5Y-93.275
X88.353Y-117.853
X88.375Y-117.
X88.4Y-116.1
X88.675Y-120.35
X88.675Y-121.15
X89.075Y-119.65
X89.3Y-84.7
X89.7Y-119.025
X90.266Y-114.709
X90.593Y-93.966
X90.65Y-94.875
X91.Y-69.9
X91.8Y-69.9
X92.301Y-73.85
X92.387Y-89.9
X92.4Y-90.8
X92.4Y-91.6
X92.6Y-69.9
X93.101Y-73.85
X93.5Y-69.9
X93.75Y-79.1
X94.275Y-80.5
X94.95Y-84.65
X96.591Y-58.24
X96.773Y-57.433
X96.92Y-56.431
X97.2Y-26.9
X97.9Y-44.619
X100.3Y-44.6
X100.3Y-56.1
X100.3Y-57.8
X100.329Y-56.9
X104.2Y-78.3
X104.65Y-34.15
X105.4Y-26.2
X105.4Y-27.8
X105.4Y-36.1
X105.4Y-37.4
X105.9Y-78.95
X106.4Y-37.4
X106.5Y-36.1
X111.525Y-39.525
X114.5Y-63.25
X116.275Y-106.6
X118.825Y-67.975
X118.95Y-82.95
X119.15Y-77.3
X121.Y-80.1
X121.Y-81.8
X122.109Y-132.966
X125.2Y-132.4
X128.6Y-26.6
X128.6Y-27.5
X130.Y-135.1
X130.7Y-132.75
X131.4Y-26.6
X131.4Y-27.4
T2
X26.Y-21.
X26.Y-25.
X26.Y-30.
X26.Y-35.
X26.Y-40.
X26.Y-45.
X26.Y-50.
X26.Y-55.
X26.Y-60.
X26.Y-65.
X26.Y-70.
X26.Y-101.
X26.Y-104.
X26.Y-109.
X26.Y-114.
X26.Y-119.
X26.Y-124.
X26.Y-129.
X26.Y-134.
X26.Y-139.
X26.Y-144.
X26.Y-149.
X26.Y-159.
X28.25Y-157.65
X30.Y-70.
X31.Y-21.
X33.Y-121.
X33.Y-129.
X33.Y-137.
X33.Y-144.
X33.5Y-153.
X34.Y-63.
X35.Y-147.5
X35.5Y-47.5
X35.6Y-110.1
X35.6Y-116.1
X36.Y-21.
X36.Y-70.
X36.Y-75.
X36.Y-80.
X36.Y-85.
X36.Y-90.
X36.Y-103.7
X36.Y-156.
X36.4Y-153.6
X36.5Y-159.
X39.Y-42.
X39.25Y-125.
X39.25Y-133.
X39.5Y-95.5
X39.5Y-108.5
X39.5Y-141.5
X41.Y-21.
X41.5Y-118.5
X43.5Y-123.
X43.8Y-43.
X44.5Y-49.5
X45.Y-148.
X45.25Y-111.
X46.Y-21.
X46.Y-26.
X46.Y-31.
X46.5Y-41.8
X46.5Y-44.2
X46.5Y-46.4
X46.6Y-35.
X46.6Y-37.
X46.6Y-39.
X46.9Y-52.
X47.5Y-64.
X47.5Y-91.
X48.Y-21.
X48.Y-22.
X48.Y-23.
X48.Y-24.
X48.Y-25.
X48.Y-26.
X48.Y-27.
X48.Y-28.
X48.Y-29.
X48.Y-30.
X48.Y-31.
X48.Y-33.5
X48.Y-34.5
X48.Y-35.5
X48.Y-36.5
X48.Y-37.5
X48.Y-38.5
X48.Y-39.5
X48.Y-43.
X48.Y-44.
X48.Y-45.
X48.Y-46.
X48.Y-47.
X48.Y-48.
X48.25Y-106.
X49.Y-21.
X49.Y-40.4
X49.Y-148.
X49.5Y-87.
X49.8Y-32.
X50.Y-21.
X50.Y-41.4
X50.2Y-29.
X50.5Y-59.
X51.Y-21.
X51.Y-42.4
X51.Y-43.5
X51.Y-44.5
X51.Y-45.5
X51.Y-46.5
X51.Y-47.5
X51.Y-48.5
X51.Y-49.5
X51.Y-50.5
X51.1Y-51.5
X51.4Y-30.4
X51.5Y-137.5
X51.5Y-142.
X52.Y-21.
X52.Y-145.
X52.1Y-51.5
X52.5Y-36.5
X53.Y-21.
X53.Y-120.5
X53.Y-126.
X53.Y-148.
X54.Y-21.
X54.Y-159.
X54.5Y-81.
X54.75Y-28.25
X55.Y-21.
X55.5Y-63.5
X55.5Y-150.
X55.95Y-47.35
X56.Y-21.
X56.Y-145.
X56.25Y-93.5
X56.5Y-98.5
X56.75Y-56.5
X57.Y-21.
X57.Y-107.
X57.Y-112.
X57.Y-117.
X57.15Y-47.35
X57.5Y-120.
X57.5Y-125.
X58.Y-21.
X58.5Y-28.25
X58.5Y-151.5
X59.Y-21.
X59.Y-96.5
X59.Y-105.
X59.Y-141.
X59.Y-159.
X59.2Y-43.4
X59.25Y-88.
X60.Y-21.
X60.Y-65.
X60.Y-74.
X60.Y-117.
X60.Y-119.5
X60.Y-130.
X60.Y-134.
X60.Y-155.
X60.5Y-36.6
X60.875Y-42.75
X61.Y-21.
X61.Y-28.25
X61.3Y-53.2
X61.5Y-56.7
X61.75Y-75.75
X62.Y-21.
X62.5Y-56.7
X62.5Y-91.5
X63.Y-21.
X63.Y-65.
X63.Y-71.
X63.Y-105.
X63.Y-137.
X63.1Y-84.2
X63.25Y-28.25
X63.5Y-56.7
X64.Y-21.
X64.Y-25.25
X64.Y-88.
X64.Y-117.
X64.Y-119.5
X64.Y-130.
X64.Y-159.
X64.5Y-28.25
X64.5Y-36.5
X64.5Y-75.75
X64.5Y-141.5
X64.5Y-145.5
X65.Y-21.
X65.Y-46.5
X65.Y-150.
X65.5Y-24.
X65.5Y-26.75
X65.5Y-36.5
X65.5Y-65.
X65.5Y-92.25
X65.875Y-84.175
X66.Y-81.
X66.Y-134.
X66.5Y-36.5
X66.5Y-39.25
X67.Y-21.
X67.Y-28.25
X67.Y-54.1
X67.Y-105.
X67.5Y-36.5
X67.95Y-55.05
X68.Y-21.
X68.Y-28.25
X68.Y-49.5
X68.Y-91.5
X68.Y-117.
X68.Y-119.5
X68.Y-127.
X68.25Y-88.
X68.4Y-38.5
X68.5Y-36.5
X68.5Y-56.2
X68.75Y-26.
X69.Y-21.
X69.Y-28.25
X69.Y-159.
X69.2Y-145.2
X69.25Y-42.5
X69.5Y-36.5
X69.75Y-49.5
X69.75Y-51.5
X69.75Y-73.75
X70.Y-21.
X70.Y-28.25
X70.Y-68.5
X70.Y-129.
X70.Y-133.
X70.25Y-44.
X70.75Y-46.
X71.Y-21.
X71.Y-28.25
X71.Y-105.
X71.75Y-36.5
X71.75Y-80.
X72.Y-21.
X72.Y-117.
X72.Y-119.5
X72.Y-123.
X72.5Y-27.
X72.5Y-84.75
X72.5Y-87.5
X72.5Y-100.
X72.5Y-147.5
X72.7Y-49.5
X72.7Y-50.5
X72.7Y-51.5
X72.7Y-52.5
X72.7Y-53.5
X72.7Y-54.5
X73.Y-21.
X73.Y-126.
X73.Y-130.
X73.2Y-141.2
X73.5Y-27.
X74.Y-21.
X74.Y-31.5
X74.Y-36.
X74.Y-82.25
X74.Y-108.
X74.Y-159.
X74.5Y-27.
X75.Y-21.
X75.Y-54.5
X75.Y-105.
X75.5Y-27.
X75.75Y-49.75
X76.Y-21.
X76.Y-41.
X76.Y-42.5
X76.Y-44.
X76.Y-117.
X76.Y-119.5
X76.Y-123.
X76.Y-127.
X76.4Y-140.8
X76.8Y-96.
X77.Y-21.
X77.Y-79.75
X77.Y-111.
X77.2Y-101.
X77.2Y-107.4
X77.5Y-72.
X77.75Y-56.5
X78.Y-21.
X78.Y-41.
X78.Y-42.5
X78.Y-44.
X78.Y-47.4
X78.25Y-24.75
X78.6Y-140.8
X79.Y-21.
X79.Y-120.
X79.Y-124.
X79.Y-135.6
X79.Y-159.
X79.25Y-24.75
X80.Y-21.
X80.Y-37.5
X80.Y-39.5
X80.Y-114.
X80.Y-131.6
X80.25Y-24.75
X80.5Y-27.
X80.5Y-28.
X80.5Y-29.
X80.5Y-30.
X80.5Y-31.5
X81.Y-21.
X81.Y-60.5
X81.Y-72.
X81.Y-90.5
X81.4Y-139.4
X81.5Y-31.5
X82.Y-21.
X82.5Y-31.5
X82.6Y-96.
X82.6Y-101.
X82.6Y-107.4
X82.6Y-113.
X82.8Y-131.6
X83.Y-21.
X83.Y-39.4
X83.5Y-31.5
X84.Y-21.
X84.Y-44.25
X84.Y-159.
X84.5Y-31.5
X84.9Y-39.4
X85.Y-21.
X85.5Y-31.5
X85.5Y-35.
X86.Y-21.
X86.4Y-126.8
X86.9Y-51.6
X87.Y-21.
X87.25Y-47.
X88.Y-21.
X89.Y-21.
X89.Y-42.
X89.Y-80.5
X89.Y-83.
X89.Y-159.
X89.5Y-39.5
X89.5Y-44.25
X90.Y-21.
X90.Y-122.5
X90.5Y-52.
X90.5Y-56.
X90.5Y-67.
X91.Y-21.
X91.Y-99.5
X91.5Y-29.
X91.5Y-33.5
X91.5Y-47.75
X91.5Y-52.
X91.5Y-56.
X91.5Y-110.
X92.Y-21.
X92.Y-114.
X92.5Y-52.
X92.5Y-56.
X92.5Y-117.5
X93.Y-21.
X93.5Y-52.
X93.5Y-56.
X93.95Y-34.2
X94.Y-21.
X94.Y-29.
X94.Y-32.
X94.Y-159.
X94.5Y-52.
X94.5Y-56.
X95.Y-21.
X95.Y-122.5
X95.5Y-32.
X95.5Y-34.2
X95.5Y-52.
X95.5Y-56.
X95.5Y-60.5
X95.5Y-85.5
X95.5Y-90.
X95.5Y-93.
X96.Y-21.
X96.Y-110.
X96.5Y-80.5
X97.Y-21.
X97.5Y-68.5
X97.5Y-117.5
X98.Y-21.
X98.Y-22.
X98.Y-23.
X98.Y-24.
X98.Y-25.
X98.Y-37.5
X98.Y-38.875
X99.Y-107.
X99.Y-159.
X100.Y-21.
X100.Y-26.
X100.Y-110.
X100.Y-122.5
X101.Y-41.
X102.Y-44.
X102.Y-80.5
X102.5Y-52.5
X102.5Y-57.5
X102.5Y-62.5
X102.5Y-94.5
X102.5Y-117.5
X104.Y-38.
X104.Y-47.5
X104.Y-159.
X104.65Y-35.15
X105.Y-41.
X105.Y-122.5
X106.2Y-35.2
X107.Y-21.
X107.Y-26.
X107.Y-28.
X107.Y-31.
X107.Y-39.
X107.Y-80.5
X107.5Y-44.
X107.5Y-50.
X107.5Y-55.
X107.5Y-60.
X107.5Y-65.
X107.5Y-68.5
X107.5Y-90.
X107.5Y-106.5
X107.5Y-110.
X107.5Y-117.5
X109.Y-21.
X109.Y-28.
X109.Y-32.
X109.Y-159.
X110.Y-42.5
X110.Y-47.5
X110.Y-52.5
X110.Y-57.5
X110.Y-62.5
X110.Y-122.5
X111.Y-35.
X111.5Y-82.
X112.Y-26.
X112.Y-28.5
X112.Y-85.5
X112.5Y-67.
X112.5Y-68.5
X112.5Y-117.5
X113.Y-89.
X114.Y-21.
X114.Y-32.
X114.Y-159.
X115.Y-106.5
X115.Y-110.
X115.Y-127.5
X115.5Y-82.
X115.5Y-88.
X116.Y-26.
X117.5Y-122.5
X118.75Y-69.25
X119.Y-21.
X119.Y-159.
X120.Y-72.5
X120.Y-75.
X120.Y-95.
X120.Y-132.5
X122.5Y-67.
X122.5Y-85.
X122.5Y-110.
X122.5Y-127.5
X123.Y-25.5
X123.5Y-102.5
X124.Y-21.
X124.Y-29.
X124.Y-159.
X124.75Y-37.75
X124.75Y-42.75
X124.75Y-47.75
X125.Y-25.5
X125.Y-108.
X125.Y-137.5
X126.Y-74.
X126.Y-82.5
X127.5Y-67.
X127.5Y-74.
X127.5Y-106.5
X127.5Y-115.
X128.Y-29.
X129.Y-21.
X129.Y-159.
X130.Y-77.75
X130.Y-82.5
X130.Y-113.
X130.Y-130.
X130.Y-140.
X132.Y-75.5
X132.Y-85.
X132.Y-90.
X132.Y-95.
X132.Y-100.
X132.Y-105.
X132.5Y-111.5
X132.5Y-120.
X134.Y-21.
X134.Y-159.
X134.5Y-67.
X134.5Y-137.5
X135.Y-76.5
X135.Y-85.
X135.Y-90.
X135.Y-95.
X135.Y-100.
X135.Y-107.5
X135.Y-110.
X135.Y-118.
X135.Y-145.
X135.1Y-125.7
X136.5Y-136.
X137.5Y-116.5
X139.Y-21.
X139.Y-159.
X140.Y-35.
X140.Y-40.
X140.Y-45.
X140.Y-107.5
X140.Y-110.
X140.5Y-123.5
X141.875Y-137.325
X141.875Y-139.575
X142.5Y-145.
X143.Y-122.
X144.Y-21.
X144.Y-159.
X144.5Y-128.
X144.5Y-130.
X145.Y-45.
X145.Y-107.5
X145.Y-110.
X145.Y-115.
X145.Y-120.
X145.9Y-139.625
X146.5Y-110.
X146.5Y-115.
X146.5Y-118.5
X148.Y-127.
X149.Y-21.
X149.Y-121.
X149.Y-159.
X150.Y-57.5
X150.Y-65.
X150.Y-75.
X150.Y-85.
X150.Y-95.
X150.5Y-118.5
X152.Y-131.
X154.Y-21.
X154.Y-121.
X154.Y-159.
X155.5Y-134.5
X157.5Y-145.
X159.Y-21.
X159.Y-121.
X159.Y-159.
X159.5Y-118.5
X159.5Y-138.
X164.Y-21.
X164.Y-26.
X164.Y-31.
X164.Y-35.
X164.Y-41.
X164.Y-46.
X164.Y-51.
X164.Y-56.
X164.Y-61.
X164.Y-66.
X164.Y-71.
X164.Y-76.
X164.Y-81.
X164.Y-86.
X164.Y-91.
X164.Y-96.
X164.Y-101.
X164.Y-106.
X164.Y-111.
X164.Y-116.
X164.Y-121.
X164.Y-126.
X164.Y-131.
X164.Y-136.
X164.Y-141.
X164.Y-151.
X164.Y-159.
T3
X62.01Y-102.05
X62.01Y-109.67
X64.55Y-102.05
X64.55Y-109.67
X67.09Y-102.05
X67.09Y-109.67
X69.63Y-102.05
X69.63Y-109.67
T4
X112.5Y-38.9
X117.3Y-82.6
X117.4Y-76.
T5
X116.Y-55.56
X116.Y-58.1
X116.Y-60.64
X128.Y-55.46
X128.Y-58.
X128.Y-60.54
T6
X149.5Y-135.2
X149.5Y-137.7
X152.Y-135.2
X152.Y-137.7
T7
X127.3Y-23.7
X129.8Y-23.7
X132.3Y-23.7
X134.8Y-23.7
X137.3Y-23.7
T8
X118.101Y-48.302
X118.301Y-37.401
X119.801Y-42.361
X119.801Y-47.441
X120.Y-31.46
X120.Y-36.54
X121.5Y-41.5
X121.699Y-30.599
T9
X29.66Y-102.41
X29.66Y-104.95
X29.66Y-107.49
X30.95Y-28.38
X30.95Y-30.92
X30.95Y-33.46
X30.95Y-36.
X30.95Y-38.54
X30.95Y-41.08
X30.95Y-43.62
X30.95Y-46.16
X30.95Y-48.7
X30.95Y-51.24
X32.2Y-102.41
X32.2Y-104.95
X32.2Y-107.49
X33.49Y-28.38
X33.49Y-30.92
X33.49Y-33.46
X33.49Y-36.
X33.49Y-38.54
X33.49Y-41.08
X33.49Y-43.62
X33.49Y-46.16
X33.49Y-48.7
X33.49Y-51.24
X38.96Y-153.6
X38.96Y-157.5
X39.46Y-50.88
X39.46Y-53.42
X39.46Y-55.96
X39.46Y-58.5
X39.46Y-61.04
X39.46Y-63.58
X41.5Y-153.6
X41.5Y-157.5
X41.6Y-32.87
X41.6Y-35.41
X41.6Y-37.95
X41.6Y-40.49
X42.Y-50.88
X42.Y-53.42
X42.Y-55.96
X42.Y-58.5
X42.Y-61.04
X42.Y-63.58
X42.75Y-93.12
X42.75Y-95.66
X42.75Y-98.2
X42.75Y-100.74
X42.75Y-103.28
X42.75Y-105.82
X42.75Y-108.36
X42.76Y-73.61
X42.76Y-76.15
X42.76Y-78.69
X42.76Y-81.23
X44.04Y-153.6
X44.04Y-157.5
X44.14Y-32.87
X44.14Y-35.41
X44.14Y-37.95
X44.14Y-40.49
X44.78Y-128.9
X44.78Y-134.4
X44.8Y-138.46
X44.8Y-141.
X44.8Y-143.54
X45.29Y-93.12
X45.29Y-95.66
X45.29Y-98.2
X45.29Y-100.74
X45.29Y-103.28
X45.29Y-105.82
X45.29Y-108.36
X45.3Y-73.61
X45.3Y-76.15
X45.3Y-78.69
X45.3Y-81.23
X46.58Y-153.6
X46.58Y-157.5
X47.32Y-128.9
X47.32Y-134.4
X49.05Y-138.46
X49.05Y-141.
X49.05Y-143.54
X49.12Y-153.6
X49.12Y-157.5
X49.86Y-128.9
X49.86Y-134.4
X51.66Y-153.6
X51.88Y-23.5
X51.88Y-26.04
X52.4Y-128.9
X52.4Y-134.4
X54.2Y-153.6
X54.42Y-23.5
X54.42Y-26.04
X54.94Y-128.9
X54.94Y-134.4
X56.96Y-23.5
X56.96Y-26.04
X59.5Y-23.5
X59.5Y-26.04
X62.04Y-23.5
X62.04Y-26.04
X67.96Y-24.
X70.5Y-24.
X73.04Y-24.
X75.58Y-24.
X79.8Y-151.31
X79.8Y-153.85
X82.34Y-151.31
X82.34Y-153.85
X84.88Y-151.31
X84.88Y-153.85
X86.72Y-24.7
X86.72Y-27.24
X87.42Y-151.31
X87.42Y-153.85
X89.26Y-24.7
X89.26Y-27.24
X89.96Y-151.31
X89.96Y-153.85
X91.8Y-24.7
X91.8Y-27.24
X93.1Y-101.65
X93.1Y-104.19
X95.64Y-101.65
X95.64Y-104.19
X97.93Y-73.41
X97.93Y-75.95
X100.47Y-73.41
X100.47Y-75.95
X102.6Y-22.65
X102.6Y-25.19
X102.6Y-30.3
X102.6Y-32.84
X102.6Y-35.38
X103.01Y-73.41
X103.01Y-75.95
X105.21Y-101.65
X105.21Y-104.19
X105.55Y-73.41
X105.55Y-75.95
X107.75Y-101.65
X107.75Y-104.19
X108.09Y-73.41
X108.09Y-75.95
X110.63Y-73.41
X110.63Y-75.95
X111.85Y-101.65
X111.85Y-104.19
X113.17Y-73.41
X113.17Y-75.95
X114.39Y-101.65
X114.39Y-104.19
X118.55Y-101.65
X118.55Y-104.19
X121.09Y-101.65
X121.09Y-104.19
T10
X114.9Y-23.7
X117.4Y-23.7
X119.9Y-23.7
T11
X152.5Y-38.9
X152.5Y-42.4
X152.5Y-45.9
X152.5Y-109.9
X152.5Y-113.4
X152.5Y-116.9
X156.Y-38.9
X156.Y-42.4
X156.Y-45.9
X156.Y-109.9
X156.Y-113.4
X156.Y-116.9
T12
X140.05Y-100.86
X142.59Y-55.14
X147.67Y-55.14
X150.21Y-100.86
X157.83Y-55.14
X160.37Y-100.86
T13
X154.21Y-142.45
T14
X154.21Y-130.45
T15
X30.Y-75.
X55.Y-40.
X55.Y-140.
X155.Y-30.
X155.Y-150.
T0
M30
